<svg width="32" height="32" viewBox="0 0 32 32" fill="none" xmlns="http://www.w3.org/2000/svg">
<path opacity="0.5" fill-rule="evenodd" clip-rule="evenodd" d="M9.14361 6.78906C10.9061 6.78906 12.5521 7.29137 13.9483 8.16163C14.0119 8.2013 14.0824 8.24768 14.1598 8.30076L14.2395 8.35608C14.6537 8.64701 14.7554 9.22111 14.4665 9.63838L14.4433 9.67053C14.2295 9.95253 14.0627 10.1899 13.9427 10.3827C12.9295 12.0108 12.3439 13.9363 12.3439 15.9995C12.3439 18.0617 12.9289 19.9862 13.9409 21.6138C14.044 21.7796 14.1816 21.9783 14.3539 22.2099L14.4429 22.3284C14.7492 22.7328 14.6722 23.3108 14.2707 23.6194L14.2391 23.6426C14.1236 23.7238 14.0214 23.792 13.9323 23.8472C12.5398 24.7114 10.8995 25.2099 9.14361 25.2099C4.09373 25.2099 0 21.0863 0 15.9995C0 10.9127 4.09373 6.78906 9.14361 6.78906Z" fill="#DE5F28"/>
<path fill-rule="evenodd" clip-rule="evenodd" d="M22.8546 25.2099C27.9044 25.2099 31.9982 21.0863 31.9982 15.9995C31.9982 10.9127 27.9044 6.78906 22.8546 6.78906C17.8047 6.78906 13.7109 10.9127 13.7109 15.9995C13.7109 21.0863 17.8047 25.2099 22.8546 25.2099Z" fill="#DE5F28"/>
</svg>
