<svg width="179" height="35" viewBox="0 0 179 35" fill="none" xmlns="http://www.w3.org/2000/svg">
<path opacity="0.5" fill-rule="evenodd" clip-rule="evenodd" d="M11.9084 3.82812C14.2038 3.82812 16.3475 4.48232 18.1658 5.61571C18.2487 5.66738 18.3406 5.72778 18.4413 5.79692L18.5451 5.86897C19.0846 6.24786 19.217 6.99556 18.8408 7.53899L18.8105 7.58087C18.5321 7.94813 18.3148 8.25729 18.1586 8.50836C16.839 10.6288 16.0763 13.1364 16.0763 15.8236C16.0763 18.5092 16.8382 21.0157 18.1562 23.1355C18.2905 23.3514 18.4697 23.6101 18.6941 23.9118L18.81 24.0662C19.209 24.5928 19.1086 25.3455 18.5858 25.7475L18.5446 25.7777C18.3942 25.8834 18.261 25.9722 18.1451 26.0442C16.3314 27.1697 14.1952 27.819 11.9084 27.819C5.33157 27.819 0 22.4484 0 15.8236C0 9.19866 5.33157 3.82812 11.9084 3.82812Z" fill="#DE5F28"/>
<path fill-rule="evenodd" clip-rule="evenodd" d="M31.7678 27.819C38.3446 27.819 43.6762 22.4484 43.6762 15.8236C43.6762 9.19866 38.3446 3.82812 31.7678 3.82812C25.1909 3.82812 19.8594 9.19866 19.8594 15.8236C19.8594 22.4484 25.1909 27.819 31.7678 27.819Z" fill="#DE5F28"/>
<path fill-rule="evenodd" clip-rule="evenodd" d="M60.7738 11.39H57.6797V8.99811H60.7738V8.01961C60.7738 6.01428 61.1216 4.52238 61.8171 3.54387C62.5127 2.56537 63.2622 1.96136 64.0658 1.73183C64.8693 1.50231 65.7027 1.38755 66.5662 1.38755C67.2138 1.38755 67.7895 1.46003 68.2932 1.60499V3.9244C67.8134 3.82776 67.3817 3.77944 66.9979 3.77944C66.2304 3.77944 65.6068 3.85192 65.1271 3.99688C64.6474 4.14185 64.2337 4.51633 63.8859 5.12035C63.5381 5.72436 63.3642 6.6787 63.3642 7.98337V8.99811H68.2932V11.39H63.3642V27.0823H60.7738V11.39ZM72.6112 10.4484C73.5226 10.0619 74.7279 9.66925 76.227 9.2706C77.726 8.87195 79.2791 8.67262 80.8861 8.67262C81.1259 8.67262 81.5097 8.74511 82.0374 8.89007V11.2095C81.4617 11.137 80.8861 11.1008 80.3104 11.1008C79.5189 11.1008 78.7874 11.1491 78.1158 11.2457C77.4442 11.3424 76.4728 11.4994 75.2016 11.7169V27.0829H72.6112V10.4484ZM101.462 8.99861L93.7624 28.8586C93.0189 30.7914 92.1494 32.1444 91.154 32.9175C90.1586 33.6907 89.1453 34.0772 88.1139 34.0772C87.5382 34.0772 86.9746 33.9685 86.4229 33.7511V31.3592C86.9026 31.5766 87.4183 31.6853 87.97 31.6853C89.0013 31.6853 89.8048 31.3109 90.3805 30.5619C90.9561 29.8129 91.4958 28.6774 91.9995 27.1552L84.5521 8.99861H87.5023L93.1868 23.7486L98.8713 8.99861H101.462ZM112.583 8.67262C115.318 8.67262 117.32 9.56656 118.592 11.3544C119.863 13.1423 120.474 15.5221 120.426 18.4939H107.33C107.33 20.6683 107.834 22.3354 108.842 23.4951C109.849 24.6548 111.288 25.2347 113.159 25.2347C115.557 25.2347 117.608 24.7152 119.311 23.6763V26.3581C117.56 27.2037 115.461 27.6266 113.015 27.6266C110.401 27.6266 108.362 26.8111 106.899 25.1803C105.436 23.5495 104.704 21.1636 104.704 18.0227C104.704 14.9543 105.394 12.6289 106.773 11.0464C108.152 9.46387 110.089 8.67262 112.583 8.67262ZM112.584 11.064C111.001 11.064 109.802 11.4324 108.987 12.1693C108.171 12.9062 107.656 14.2169 107.44 16.1014H117.693C117.573 14.4102 117.1 13.1478 116.272 12.3143C115.445 11.4807 114.215 11.064 112.584 11.064ZM125.285 10.4484C127.611 9.26455 130.142 8.67262 132.876 8.67262C135.394 8.67262 137.211 9.22831 138.327 10.3397C139.442 11.4511 140 13.1061 140 15.3047V27.0829H137.409V15.3047C137.409 12.4537 135.802 11.0283 132.588 11.0283C131.101 11.0283 129.53 11.2699 127.875 11.7531V27.0829H125.285V10.4484ZM160.467 1.35156V23.9658C160.467 25.198 159.694 26.1161 158.147 26.7201C156.6 27.3241 154.915 27.6261 153.092 27.6261C150.885 27.6261 148.967 26.9074 147.336 25.4698C145.705 24.0322 144.877 21.4773 144.853 17.8049C144.853 14.9539 145.543 12.7251 146.922 11.1185C148.301 9.51177 150.346 8.70844 153.056 8.70844C153.68 8.70844 154.453 8.81112 155.377 9.01649C156.3 9.22185 157.134 9.4695 157.877 9.75942V1.35156H160.467ZM157.878 12.3683C157.159 11.9576 156.373 11.6435 155.522 11.426C154.67 11.2086 153.849 11.0999 153.057 11.0999C151.186 11.0999 149.807 11.6978 148.92 12.8938C148.032 14.0897 147.589 15.7266 147.589 17.8044C147.589 20.0755 147.996 21.8815 148.812 23.2224C149.627 24.5633 151.102 25.2338 153.237 25.2338C154.508 25.2338 155.6 25.0888 156.511 24.7989C157.422 24.509 157.878 24.1466 157.878 23.7117V12.3683ZM171.297 27.6266C170.073 27.6266 169.03 27.5058 168.167 27.2641C167.303 27.0225 166.356 26.636 165.324 26.1044V23.3501C166.548 24.0508 167.549 24.54 168.328 24.8179C169.108 25.0957 170.037 25.2347 171.117 25.2347C172.316 25.2347 173.293 24.9689 174.049 24.4374C174.804 23.9058 175.182 23.2173 175.182 22.3716C175.182 21.6227 174.954 21.0609 174.499 20.6864C174.043 20.312 173.323 19.9314 172.34 19.5449L171.405 19.1462C170.037 18.7596 168.976 18.4093 168.22 18.0952C167.465 17.7811 166.805 17.2859 166.242 16.6094C165.678 15.9329 165.396 15.0148 165.396 13.8551C165.396 12.6953 165.696 11.7289 166.296 10.9558C166.895 10.1827 167.675 9.60885 168.634 9.23436C169.594 8.85987 170.601 8.67262 171.656 8.67262C172.616 8.67262 173.425 8.78135 174.085 8.99879C174.744 9.21624 175.65 9.57864 176.801 10.086V12.6954C175.602 12.0913 174.684 11.6685 174.049 11.4269C173.413 11.1853 172.664 11.0645 171.8 11.0645C170.745 11.0645 169.845 11.2759 169.102 11.6987C168.358 12.1215 167.987 12.7195 167.987 13.4926C167.987 14.1208 168.173 14.6342 168.544 15.0329C168.916 15.4315 169.384 15.7456 169.947 15.9751C170.511 16.2047 171.273 16.4523 172.232 16.7181C173.431 17.1046 174.385 17.455 175.092 17.7691C175.8 18.0831 176.423 18.5845 176.963 19.2731C177.503 19.9616 177.773 20.8858 177.773 22.0455C177.773 23.2777 177.461 24.3105 176.837 25.1441C176.214 25.9776 175.404 26.5997 174.409 27.0105C173.413 27.4212 172.376 27.6266 171.297 27.6266Z" fill="#DE5F28"/>
<path d="M60.7738 11.39H61.6492V10.5146H60.7738V11.39ZM57.6797 11.39H56.8043V12.2654H57.6797V11.39ZM57.6797 8.99811V8.12273H56.8043V8.99811H57.6797ZM60.7738 8.99811V9.87349H61.6492V8.99811H60.7738ZM68.2932 1.60499H69.1685V0.946015L68.5353 0.763757L68.2932 1.60499ZM68.2932 3.9244L68.1203 4.78254L69.1685 4.99373V3.9244H68.2932ZM63.3642 8.99811H62.4888V9.87349H63.3642V8.99811ZM68.2932 8.99811H69.1685V8.12273H68.2932V8.99811ZM68.2932 11.39V12.2654H69.1685V11.39H68.2932ZM63.3642 11.39V10.5146H62.4888V11.39H63.3642ZM63.3642 27.0823V27.9576H64.2396V27.0823H63.3642ZM60.7738 27.0823H59.8984V27.9576H60.7738V27.0823ZM72.6112 10.4484L72.2694 9.64253L71.7358 9.86884V10.4484H72.6112ZM82.0374 8.89007H82.9128V8.22274L82.2693 8.04596L82.0374 8.89007ZM82.0374 11.2095L81.928 12.078L82.9128 12.202V11.2095H82.0374ZM75.2016 11.7169L75.054 10.854L74.3262 10.9785V11.7169H75.2016ZM75.2016 27.0829V27.9583H76.077V27.0829H75.2016ZM72.6112 27.0829H71.7358V27.9583H72.6112V27.0829ZM101.462 8.99861L102.278 9.31503L102.74 8.12323H101.462V8.99861ZM93.7624 28.8586L92.9462 28.5421L92.9454 28.5443L93.7624 28.8586ZM86.4229 33.7511H85.5475V34.347L86.1019 34.5655L86.4229 33.7511ZM86.4229 31.3592L86.7843 30.5619L85.5475 30.0013V31.3592H86.4229ZM91.9995 27.1552L92.8306 27.4303L92.9323 27.1227L92.8094 26.823L91.9995 27.1552ZM84.5521 8.99861V8.12323H83.2469L83.7422 9.33081L84.5521 8.99861ZM87.5023 8.99861L88.3191 8.68382L88.103 8.12323H87.5023V8.99861ZM93.1868 23.7486L92.3699 24.0634L93.1868 26.1829L94.0036 24.0634L93.1868 23.7486ZM98.8713 8.99861V8.12323H98.2705L98.0544 8.68382L98.8713 8.99861ZM120.426 18.4939V19.3693H121.288L121.302 18.508L120.426 18.4939ZM107.33 18.4939V17.6185H106.455V18.4939H107.33ZM119.311 23.6763H120.186V22.1169L118.855 22.929L119.311 23.6763ZM119.311 26.3581L119.692 27.1464L120.186 26.9075V26.3581H119.311ZM107.44 16.1014L106.57 16.0018L106.458 16.9768H107.44V16.1014ZM117.693 16.1014V16.9768H118.633L118.567 16.0395L117.693 16.1014ZM125.285 10.4484L124.888 9.66824L124.409 9.91166V10.4484H125.285ZM140 27.0829V27.9583H140.875V27.0829H140ZM137.409 27.0829H136.534V27.9583H137.409V27.0829ZM127.875 11.7531L127.63 10.9128L127 11.0968V11.7531H127.875ZM127.875 27.0829V27.9583H128.75V27.0829H127.875ZM125.285 27.0829H124.409V27.9583H125.285V27.0829ZM160.467 1.35156H161.343V0.476181H160.467V1.35156ZM144.853 17.8049H143.978L143.978 17.8106L144.853 17.8049ZM157.877 9.75942L157.559 10.575L158.752 11.0403V9.75942H157.877ZM157.877 1.35156V0.476181H157.002V1.35156H157.877ZM157.878 12.3683H158.754V11.86L158.312 11.6081L157.878 12.3683ZM165.324 26.1044H164.449V26.6381L164.923 26.8826L165.324 26.1044ZM165.324 23.3501L165.759 22.5905L164.449 21.8399V23.3501H165.324ZM172.34 19.5449L171.997 20.3502L172.008 20.355L172.02 20.3596L172.34 19.5449ZM171.405 19.1462L171.748 18.3409L171.696 18.319L171.643 18.3039L171.405 19.1462ZM176.801 10.086H177.677V9.51518L177.154 9.28497L176.801 10.086ZM176.801 12.6954L176.407 13.4772L177.677 14.1164V12.6954H176.801ZM172.232 16.7181L172.501 15.8849L172.483 15.8793L172.466 15.8745L172.232 16.7181ZM60.7738 10.5146H57.6797V12.2654H60.7738V10.5146ZM58.5551 11.39V8.99811H56.8043V11.39H58.5551ZM57.6797 9.87349H60.7738V8.12273H57.6797V9.87349ZM61.6492 8.99811V8.01961H59.8984V8.99811H61.6492ZM61.6492 8.01961C61.6492 6.08592 61.99 4.81164 62.5306 4.05106L61.1037 3.03669C60.2532 4.23312 59.8984 5.94264 59.8984 8.01961H61.6492ZM62.5306 4.05106C63.16 3.16563 63.7617 2.72909 64.3062 2.57355L63.8253 0.890121C62.7628 1.19363 61.8654 1.9651 61.1037 3.03669L62.5306 4.05106ZM64.3062 2.57355C65.0289 2.36709 65.7813 2.26293 66.5662 2.26293V0.512166C65.6241 0.512166 64.7096 0.637523 63.8253 0.890121L64.3062 2.57355ZM66.5662 2.26293C67.1504 2.26293 67.642 2.3285 68.051 2.44623L68.5353 0.763757C67.9369 0.591552 67.2773 0.512166 66.5662 0.512166V2.26293ZM67.4178 1.60499V3.9244H69.1685V1.60499H67.4178ZM68.466 3.06626C67.9441 2.96112 67.4531 2.90406 66.9979 2.90406V4.65482C67.3104 4.65482 67.6828 4.6944 68.1203 4.78254L68.466 3.06626ZM66.9979 2.90406C66.1851 2.90406 65.4671 2.97967 64.8739 3.15893L65.3803 4.83484C65.7466 4.72417 66.2758 4.65482 66.9979 4.65482V2.90406ZM64.8739 3.15893C64.1094 3.38995 63.5425 3.96245 63.1273 4.68354L64.6445 5.55715C64.9249 5.07021 65.1854 4.89375 65.3803 4.83484L64.8739 3.15893ZM63.1273 4.68354C62.6616 5.49228 62.4888 6.63792 62.4888 7.98337H64.2396C64.2396 6.71947 64.4146 5.95645 64.6445 5.55715L63.1273 4.68354ZM62.4888 7.98337V8.99811H64.2396V7.98337H62.4888ZM63.3642 9.87349H68.2932V8.12273H63.3642V9.87349ZM67.4178 8.99811V11.39H69.1685V8.99811H67.4178ZM68.2932 10.5146H63.3642V12.2654H68.2932V10.5146ZM62.4888 11.39V27.0823H64.2396V11.39H62.4888ZM63.3642 26.2069H60.7738V27.9576H63.3642V26.2069ZM61.6492 27.0823V11.39H59.8984V27.0823H61.6492ZM72.953 11.2543C73.8115 10.8902 74.9731 10.5098 76.4519 10.1166L76.002 8.42462C74.4827 8.82865 73.2337 9.23352 72.2694 9.64253L72.953 11.2543ZM76.4519 10.1166C77.875 9.73814 79.3523 9.54801 80.8861 9.54801V7.79724C79.2059 7.79724 77.5771 8.00576 76.002 8.42462L76.4519 10.1166ZM80.8861 9.54801C80.9977 9.54801 81.282 9.59036 81.8055 9.73418L82.2693 8.04596C81.7374 7.89985 81.2542 7.79724 80.8861 7.79724V9.54801ZM81.162 8.89007V11.2095H82.9128V8.89007H81.162ZM82.1467 10.341C81.5351 10.2639 80.9229 10.2254 80.3104 10.2254V11.9761C80.8492 11.9761 81.3884 12.0101 81.928 12.078L82.1467 10.341ZM80.3104 10.2254C79.4839 10.2254 78.7101 10.2758 77.9911 10.3793L78.2405 12.1122C78.8646 12.0224 79.554 11.9761 80.3104 11.9761V10.2254ZM77.9911 10.3793C77.3079 10.4776 76.3274 10.6362 75.054 10.854L75.3492 12.5797C76.6183 12.3626 77.5806 12.2071 78.2405 12.1122L77.9911 10.3793ZM74.3262 11.7169V27.0829H76.077V11.7169H74.3262ZM75.2016 26.2076H72.6112V27.9583H75.2016V26.2076ZM73.4866 27.0829V10.4484H71.7358V27.0829H73.4866ZM100.645 8.68219L92.9462 28.5421L94.5786 29.175L102.278 9.31503L100.645 8.68219ZM92.9454 28.5443C92.2261 30.414 91.4297 31.595 90.617 32.2262L91.691 33.6089C92.8692 32.6938 93.8116 31.1688 94.5794 29.1729L92.9454 28.5443ZM90.617 32.2262C89.7402 32.9072 88.9107 33.2019 88.1139 33.2019V34.9526C89.3798 34.9526 90.577 34.4741 91.691 33.6089L90.617 32.2262ZM88.1139 33.2019C87.6514 33.2019 87.1965 33.1151 86.7439 32.9367L86.1019 34.5655C86.7527 34.822 87.425 34.9526 88.1139 34.9526V33.2019ZM87.2983 33.7511V31.3592H85.5475V33.7511H87.2983ZM86.0615 32.1565C86.6601 32.4278 87.2997 32.5607 87.97 32.5607V30.81C87.5369 30.81 87.1451 30.7254 86.7843 30.5619L86.0615 32.1565ZM87.97 32.5607C89.2445 32.5607 90.3164 32.0817 91.0746 31.0953L89.6864 30.0284C89.2932 30.54 88.7582 30.81 87.97 30.81V32.5607ZM91.0746 31.0953C91.7375 30.2327 92.3144 28.9901 92.8306 27.4303L91.1684 26.8802C90.6772 28.3647 90.1747 29.3931 89.6864 30.0284L91.0746 31.0953ZM92.8094 26.823L85.362 8.66641L83.7422 9.33081L91.1896 27.4874L92.8094 26.823ZM84.5521 9.87399H87.5023V8.12323H84.5521V9.87399ZM86.6854 9.31341L92.3699 24.0634L94.0036 23.4338L88.3191 8.68382L86.6854 9.31341ZM94.0036 24.0634L99.6881 9.31341L98.0544 8.68382L92.3699 23.4338L94.0036 24.0634ZM98.8713 9.87399H101.462V8.12323H98.8713V9.87399ZM112.583 9.54801C115.112 9.54801 116.812 10.3619 117.878 11.8617L119.305 10.8472C117.829 8.77117 115.523 7.79724 112.583 7.79724V9.54801ZM117.878 11.8617C119.009 13.4518 119.597 15.6294 119.551 18.4797L121.302 18.508C121.352 15.4149 120.717 12.8329 119.305 10.8472L117.878 11.8617ZM120.426 17.6185H107.33V19.3693H120.426V17.6185ZM106.455 18.4939C106.455 20.7925 106.987 22.695 108.181 24.0692L109.502 22.921C108.681 21.9757 108.206 20.5442 108.206 18.4939H106.455ZM108.181 24.0692C109.39 25.4615 111.095 26.11 113.159 26.11V24.3593C111.481 24.3593 110.308 23.8481 109.502 22.921L108.181 24.0692ZM113.159 26.11C115.686 26.11 117.901 25.5618 119.767 24.4236L118.855 22.929C117.315 23.8686 115.429 24.3593 113.159 24.3593V26.11ZM118.436 23.6763V26.3581H120.186V23.6763H118.436ZM118.93 25.5699C117.325 26.3453 115.363 26.7512 113.015 26.7512V28.5019C115.56 28.5019 117.796 28.0622 119.692 27.1464L118.93 25.5699ZM113.015 26.7512C110.597 26.7512 108.815 26.0058 107.55 24.5957L106.247 25.7649C107.908 27.6165 110.204 28.5019 113.015 28.5019V26.7512ZM107.55 24.5957C106.283 23.1832 105.579 21.0405 105.579 18.0227H103.829C103.829 21.2868 104.588 23.9157 106.247 25.7649L107.55 24.5957ZM105.579 18.0227C105.579 15.0702 106.245 12.985 107.433 11.6215L106.113 10.4713C104.543 12.2729 103.829 14.8384 103.829 18.0227H105.579ZM107.433 11.6215C108.614 10.266 110.289 9.54801 112.583 9.54801V7.79724C109.888 7.79724 107.69 8.66179 106.113 10.4713L107.433 11.6215ZM112.584 10.1886C110.879 10.1886 109.435 10.5847 108.4 11.5198L109.574 12.8188C110.17 12.2801 111.124 11.9393 112.584 11.9393V10.1886ZM108.4 11.5198C107.346 12.472 106.794 14.0461 106.57 16.0018L108.309 16.2011C108.517 14.3877 108.996 13.3404 109.574 12.8188L108.4 11.5198ZM107.44 16.9768H117.693V15.2261H107.44V16.9768ZM118.567 16.0395C118.438 14.2302 117.922 12.7339 116.893 11.6975L115.651 12.931C116.277 13.5617 116.709 14.5902 116.82 16.1634L118.567 16.0395ZM116.893 11.6975C115.846 10.6427 114.356 10.1886 112.584 10.1886V11.9393C114.075 11.9393 115.043 12.3187 115.651 12.931L116.893 11.6975ZM125.682 11.2286C127.879 10.1103 130.273 9.54801 132.876 9.54801V7.79724C130.01 7.79724 127.343 8.4188 124.888 9.66824L125.682 11.2286ZM132.876 9.54801C135.296 9.54801 136.833 10.0867 137.709 10.9598L138.945 9.71962C137.59 8.3699 135.492 7.79724 132.876 7.79724V9.54801ZM137.709 10.9598C138.603 11.8508 139.124 13.245 139.124 15.3047H140.875C140.875 12.9671 140.281 11.0513 138.945 9.71962L137.709 10.9598ZM139.124 15.3047V27.0829H140.875V15.3047H139.124ZM140 26.2076H137.409V27.9583H140V26.2076ZM138.285 27.0829V15.3047H136.534V27.0829H138.285ZM138.285 15.3047C138.285 13.7153 137.832 12.3712 136.785 11.4425C135.758 10.5316 134.306 10.1529 132.588 10.1529V11.9037C134.084 11.9037 135.043 12.2377 135.623 12.7522C136.183 13.249 136.534 14.0431 136.534 15.3047H138.285ZM132.588 10.1529C131.006 10.1529 129.352 10.4099 127.63 10.9128L128.12 12.5934C129.708 12.1298 131.196 11.9037 132.588 11.9037V10.1529ZM127 11.7531V27.0829H128.75V11.7531H127ZM127.875 26.2076H125.285V27.9583H127.875V26.2076ZM126.16 27.0829V10.4484H124.409V27.0829H126.16ZM159.592 1.35156V23.9658H161.343V1.35156H159.592ZM159.592 23.9658C159.592 24.3814 159.468 24.7178 159.218 25.0145C158.955 25.3271 158.515 25.6365 157.829 25.9047L158.465 27.5355C159.325 27.1997 160.047 26.7481 160.557 26.1426C161.08 25.5212 161.343 24.7824 161.343 23.9658H159.592ZM157.829 25.9047C156.392 26.4654 154.817 26.7508 153.092 26.7508V28.5015C155.013 28.5015 156.807 28.1829 158.465 27.5355L157.829 25.9047ZM153.092 26.7508C151.095 26.7508 149.383 26.1074 147.914 24.8131L146.757 26.1265C148.55 27.7073 150.676 28.5015 153.092 28.5015V26.7508ZM147.914 24.8131C146.566 23.6245 145.752 21.3866 145.728 17.7992L143.978 17.8106C144.002 21.568 144.843 24.44 146.757 26.1265L147.914 24.8131ZM145.728 17.8049C145.728 15.0901 146.384 13.0888 147.586 11.6886L146.258 10.5483C144.701 12.3614 143.978 14.8177 143.978 17.8049H145.728ZM147.586 11.6886C148.755 10.3272 150.524 9.58382 153.056 9.58382V7.83306C150.167 7.83306 147.847 8.69632 146.258 10.5483L147.586 11.6886ZM153.056 9.58382C153.592 9.58382 154.297 9.67316 155.187 9.87099L155.567 8.16198C154.609 7.94908 153.767 7.83306 153.056 7.83306V9.58382ZM155.187 9.87099C156.074 10.0684 156.864 10.3039 157.559 10.575L158.195 8.94385C157.403 8.63505 156.526 8.37532 155.567 8.16198L155.187 9.87099ZM158.752 9.75942V1.35156H157.002V9.75942H158.752ZM157.877 2.22694H160.467V0.476181H157.877V2.22694ZM158.312 11.6081C157.52 11.1561 156.661 10.8136 155.738 10.5779L155.305 12.2742C156.085 12.4734 156.797 12.759 157.444 13.1285L158.312 11.6081ZM155.738 10.5779C154.824 10.3443 153.929 10.2245 153.057 10.2245V11.9753C153.768 11.9753 154.517 12.0729 155.305 12.2742L155.738 10.5779ZM153.057 10.2245C150.988 10.2245 149.311 10.8972 148.217 12.3721L149.623 13.4154C150.303 12.4985 151.385 11.9753 153.057 11.9753V10.2245ZM148.217 12.3721C147.181 13.7683 146.713 15.6112 146.713 17.8044H148.464C148.464 15.842 148.884 14.4112 149.623 13.4154L148.217 12.3721ZM146.713 17.8044C146.713 20.1683 147.136 22.1512 148.064 23.6773L149.56 22.7675C148.857 21.6118 148.464 19.9827 148.464 17.8044H146.713ZM148.064 23.6773C149.093 25.3697 150.92 26.1092 153.237 26.1092V24.3584C151.285 24.3584 150.161 23.757 149.56 22.7675L148.064 23.6773ZM153.237 26.1092C154.571 26.1092 155.756 25.9576 156.776 25.6331L156.246 23.9647C155.443 24.22 154.446 24.3584 153.237 24.3584V26.1092ZM156.776 25.6331C157.277 25.4739 157.734 25.2713 158.081 24.9948C158.442 24.7078 158.754 24.2797 158.754 23.7117H157.003C157.003 23.5785 157.086 23.5491 156.991 23.6245C156.883 23.7104 156.657 23.834 156.246 23.9647L156.776 25.6331ZM158.754 23.7117V12.3683H157.003V23.7117H158.754ZM171.297 26.7512C170.126 26.7512 169.167 26.6351 168.402 26.4211L167.931 28.1071C168.893 28.3764 170.02 28.5019 171.297 28.5019V26.7512ZM168.402 26.4211C167.61 26.1994 166.718 25.8382 165.725 25.3263L164.923 26.8826C165.993 27.4338 166.996 27.8457 167.931 28.1071L168.402 26.4211ZM166.2 26.1044V23.3501H164.449V26.1044H166.2ZM164.889 24.1097C166.131 24.8209 167.184 25.3393 168.035 25.6425L168.622 23.9933C167.914 23.7408 166.964 23.2807 165.759 22.5905L164.889 24.1097ZM168.035 25.6425C168.932 25.9624 169.966 26.11 171.117 26.11V24.3593C170.109 24.3593 169.284 24.2291 168.622 23.9933L168.035 25.6425ZM171.117 26.11C172.443 26.11 173.611 25.8156 174.553 25.1533L173.545 23.7214C172.976 24.1222 172.189 24.3593 171.117 24.3593V26.11ZM174.553 25.1533C175.516 24.4756 176.058 23.5317 176.058 22.3716H174.307C174.307 22.9029 174.093 23.3361 173.545 23.7214L174.553 25.1533ZM176.058 22.3716C176.058 21.4375 175.765 20.5941 175.054 20.0101L173.943 21.3628C174.144 21.5277 174.307 21.8079 174.307 22.3716H176.058ZM175.054 20.0101C174.493 19.5487 173.673 19.1282 172.66 18.7302L172.02 20.3596C172.974 20.7347 173.593 21.0752 173.943 21.3628L175.054 20.0101ZM172.683 18.7396L171.748 18.3409L171.061 19.9515L171.997 20.3502L172.683 18.7396ZM171.643 18.3039C170.288 17.9209 169.265 17.5815 168.557 17.2869L167.884 18.9035C168.687 19.2371 169.786 19.5984 171.166 19.9886L171.643 18.3039ZM168.557 17.2869C167.941 17.0312 167.394 16.6254 166.914 16.049L165.569 17.1697C166.216 17.9463 166.989 18.5311 167.884 18.9035L168.557 17.2869ZM166.914 16.049C166.518 15.5738 166.272 14.8756 166.272 13.8551H164.521C164.521 15.1539 164.838 16.2919 165.569 17.1697L166.914 16.049ZM166.272 13.8551C166.272 12.8523 166.528 12.0848 166.987 11.4923L165.604 10.4193C164.864 11.373 164.521 12.5384 164.521 13.8551H166.272ZM166.987 11.4923C167.485 10.8509 168.132 10.3699 168.953 10.0498L168.316 8.4189C167.217 8.84776 166.306 9.51445 165.604 10.4193L166.987 11.4923ZM168.953 10.0498C169.808 9.71591 170.707 9.54801 171.656 9.54801V7.79724C170.495 7.79724 169.379 8.00382 168.316 8.4189L168.953 10.0498ZM171.656 9.54801C172.555 9.54801 173.266 9.65062 173.811 9.83016L174.359 8.16742C173.584 7.91207 172.676 7.79724 171.656 7.79724V9.54801ZM173.811 9.83016C174.43 10.0344 175.306 10.3835 176.448 10.8871L177.154 9.28497C175.994 8.77375 175.059 8.39807 174.359 8.16742L173.811 9.83016ZM175.926 10.086V12.6954H177.677V10.086H175.926ZM177.195 11.9135C175.989 11.3063 175.039 10.8669 174.36 10.6087L173.738 12.2452C174.33 12.4702 175.215 12.8764 176.407 13.4772L177.195 11.9135ZM174.36 10.6087C173.602 10.3206 172.743 10.1891 171.8 10.1891V11.9399C172.585 11.9399 173.224 12.05 173.738 12.2452L174.36 10.6087ZM171.8 10.1891C170.628 10.1891 169.572 10.4243 168.669 10.9378L169.535 12.4597C170.119 12.1275 170.861 11.9399 171.8 11.9399V10.1891ZM168.669 10.9378C167.687 11.4961 167.111 12.3661 167.111 13.4926H168.862C168.862 13.0729 169.029 12.747 169.535 12.4597L168.669 10.9378ZM167.111 13.4926C167.111 14.3062 167.358 15.0445 167.904 15.6299L169.184 14.4359C168.987 14.2239 168.862 13.9354 168.862 13.4926H167.111ZM167.904 15.6299C168.372 16.1318 168.95 16.5141 169.617 16.7859L170.278 15.1644C169.818 14.9772 169.46 14.7313 169.184 14.4359L167.904 15.6299ZM169.617 16.7859C170.226 17.0337 171.024 17.2918 171.998 17.5617L172.466 15.8745C171.521 15.6129 170.796 15.3757 170.278 15.1644L169.617 16.7859ZM171.963 17.5512C173.149 17.9334 174.07 18.2729 174.737 18.5692L175.447 16.969C174.7 16.637 173.713 16.2759 172.501 15.8849L171.963 17.5512ZM174.737 18.5692C175.298 18.818 175.811 19.2223 176.274 19.813L177.652 18.7331C177.036 17.9466 176.302 17.3483 175.447 16.969L174.737 18.5692ZM176.274 19.813C176.659 20.3039 176.897 21.0178 176.897 22.0455H178.648C178.648 20.7538 178.347 19.6194 177.652 18.7331L176.274 19.813ZM176.897 22.0455C176.897 23.1245 176.627 23.9639 176.136 24.6197L177.538 25.6685C178.295 24.6572 178.648 23.4309 178.648 22.0455H176.897ZM176.136 24.6197C175.61 25.3225 174.93 25.8485 174.075 26.2013L174.743 27.8197C175.878 27.351 176.817 26.6327 177.538 25.6685L176.136 24.6197ZM174.075 26.2013C173.186 26.5682 172.262 26.7512 171.297 26.7512V28.5019C172.49 28.5019 173.641 28.2742 174.743 27.8197L174.075 26.2013Z" fill="#DE5F28"/>
</svg>
