<svg width="115" height="23" viewBox="0 0 115 23" fill="none" xmlns="http://www.w3.org/2000/svg">
<g opacity="0.5">
<path opacity="0.5" fill-rule="evenodd" clip-rule="evenodd" d="M11.4735 0C13.6233 0 15.6311 0.612706 17.3341 1.67422C17.4117 1.72261 17.4977 1.77918 17.5921 1.84393L17.6893 1.91141C18.1945 2.26628 18.3186 2.96656 17.9663 3.47553L17.9378 3.51475C17.6771 3.85872 17.4736 4.14827 17.3273 4.38341C16.0914 6.36937 15.3771 8.71799 15.3771 11.2347C15.3771 13.75 16.0907 16.0975 17.3251 18.0829C17.4508 18.2851 17.6187 18.5274 17.8288 18.81L17.9374 18.9546C18.3111 19.4478 18.2171 20.1528 17.7274 20.5292L17.6888 20.5576C17.548 20.6566 17.4233 20.7397 17.3146 20.8072C15.616 21.8612 13.6152 22.4694 11.4735 22.4694C5.31375 22.4694 0.320312 17.4394 0.320312 11.2347C0.320312 5.02994 5.31375 0 11.4735 0Z" fill="black"/>
<path fill-rule="evenodd" clip-rule="evenodd" d="M28.2 22.4694C34.3598 22.4694 39.3532 17.4394 39.3532 11.2347C39.3532 5.02994 34.3598 0 28.2 0C22.0403 0 17.0469 5.02994 17.0469 11.2347C17.0469 17.4394 22.0403 22.4694 28.2 22.4694Z" fill="black"/>
<path fill-rule="evenodd" clip-rule="evenodd" d="M53.4367 10.3946H51.8438V9.16319H53.4367V8.65942C53.4367 7.62702 53.6157 6.85895 53.9738 6.35518C54.3319 5.85142 54.7178 5.54046 55.1315 5.42229C55.5452 5.30413 55.9743 5.24504 56.4188 5.24504C56.7522 5.24504 57.0486 5.28236 57.3079 5.35699V6.55109C57.0609 6.50134 56.8386 6.47646 56.6411 6.47646C56.2459 6.47646 55.9249 6.51377 55.6779 6.58841C55.4309 6.66304 55.2179 6.85583 55.0389 7.1668C54.8598 7.47776 54.7703 7.96908 54.7703 8.64077V9.16319H57.3079V10.3946H54.7703V18.4734H53.4367V10.3946ZM59.5307 9.9098C60 9.71079 60.6205 9.50866 61.3922 9.30343C62.164 9.09819 62.9636 8.99557 63.7909 8.99557C63.9144 8.99557 64.112 9.03289 64.3836 9.10752V10.3016C64.0873 10.2643 63.7909 10.2456 63.4945 10.2456C63.0871 10.2456 62.7104 10.2705 62.3647 10.3203C62.0189 10.37 61.5188 10.4509 60.8644 10.5628V18.4737H59.5307V9.9098ZM74.3848 9.1635L70.421 19.388C70.0382 20.3831 69.5906 21.0796 69.0781 21.4777C68.5657 21.8757 68.044 22.0747 67.513 22.0747C67.2166 22.0747 66.9264 22.0187 66.6424 21.9068V20.6754C66.8894 20.7873 67.1549 20.8433 67.4389 20.8433C67.9699 20.8433 68.3835 20.6505 68.6799 20.2649C68.9762 19.8793 69.2541 19.2947 69.5134 18.5111L65.6792 9.1635H67.1981L70.1246 16.7572L73.0512 9.1635H74.3848ZM80.1096 8.99557C81.5173 8.99557 82.5484 9.45579 83.2028 10.3762C83.8573 11.2967 84.1722 12.5219 84.1475 14.0518H77.4053C77.4053 15.1713 77.6646 16.0296 78.1832 16.6266C78.7019 17.2237 79.4428 17.5222 80.4059 17.5222C81.6408 17.5222 82.6965 17.2548 83.5733 16.7199V18.1006C82.6718 18.5359 81.5914 18.7536 80.3318 18.7536C78.9859 18.7536 77.9363 18.3338 77.183 17.4942C76.4298 16.6546 76.0532 15.4263 76.0532 13.8093C76.0532 12.2296 76.4082 11.0324 77.1182 10.2177C77.8282 9.40293 78.8253 8.99557 80.1096 8.99557ZM80.1103 10.2268C79.2953 10.2268 78.6779 10.4165 78.2581 10.7959C77.8383 11.1752 77.5728 11.85 77.4616 12.8202H82.7405C82.6788 11.9495 82.4349 11.2996 82.0089 10.8705C81.5829 10.4414 80.95 10.2268 80.1103 10.2268ZM86.6492 9.9098C87.847 9.30031 89.1497 8.99557 90.5574 8.99557C91.854 8.99557 92.7894 9.28165 93.3636 9.85383C93.9378 10.426 94.2249 11.278 94.2249 12.41V18.4737H92.8912V12.41C92.8912 10.9422 92.0639 10.2083 90.4092 10.2083C89.6436 10.2083 88.8348 10.3327 87.9828 10.5815V18.4737H86.6492V9.9098ZM104.762 5.22656V16.869C104.762 17.5034 104.364 17.9761 103.567 18.287C102.771 18.598 101.903 18.7535 100.965 18.7535C99.8289 18.7535 98.8411 18.3834 98.0014 17.6433C97.1617 16.9032 96.7357 15.5879 96.7233 13.6972C96.7233 12.2295 97.0784 11.082 97.7884 10.2548C98.4984 9.42768 99.5511 9.0141 100.946 9.0141C101.268 9.0141 101.666 9.06696 102.141 9.17269C102.617 9.27842 103.046 9.40591 103.428 9.55518V5.22656H104.762ZM103.429 10.8984C103.059 10.6869 102.654 10.5252 102.216 10.4133C101.778 10.3013 101.355 10.2454 100.947 10.2454C99.984 10.2454 99.274 10.5532 98.8171 11.1689C98.3603 11.7846 98.1318 12.6273 98.1318 13.6971C98.1318 14.8663 98.3417 15.7961 98.7616 16.4864C99.1814 17.1767 99.9408 17.5219 101.04 17.5219C101.694 17.5219 102.256 17.4473 102.725 17.298C103.195 17.1488 103.429 16.9622 103.429 16.7383V10.8984ZM110.336 18.7536C109.707 18.7536 109.169 18.6914 108.725 18.567C108.28 18.4426 107.793 18.2436 107.262 17.97V16.552C107.891 16.9127 108.407 17.1646 108.808 17.3076C109.21 17.4507 109.688 17.5222 110.244 17.5222C110.861 17.5222 111.364 17.3854 111.753 17.1117C112.142 16.8381 112.337 16.4836 112.337 16.0482C112.337 15.6626 112.219 15.3734 111.985 15.1806C111.75 14.9878 111.38 14.7919 110.873 14.5929L110.392 14.3877C109.688 14.1887 109.142 14.0083 108.753 13.8466C108.364 13.6849 108.024 13.4299 107.734 13.0816C107.444 12.7334 107.299 12.2607 107.299 11.6636C107.299 11.0666 107.453 10.569 107.762 10.171C108.07 9.77298 108.472 9.47757 108.966 9.28477C109.46 9.09197 109.978 8.99557 110.522 8.99557C111.015 8.99557 111.432 9.05154 111.772 9.16349C112.111 9.27544 112.578 9.46202 113.17 9.72323V11.0666C112.553 10.7556 112.081 10.538 111.753 10.4136C111.426 10.2892 111.04 10.227 110.596 10.227C110.052 10.227 109.589 10.3358 109.206 10.5535C108.824 10.7712 108.632 11.079 108.632 11.4771C108.632 11.8005 108.728 12.0648 108.919 12.27C109.111 12.4753 109.352 12.637 109.642 12.7551C109.932 12.8733 110.324 13.0008 110.818 13.1376C111.435 13.3366 111.926 13.517 112.29 13.6787C112.655 13.8404 112.976 14.0985 113.254 14.453C113.531 14.8075 113.67 15.2833 113.67 15.8803C113.67 16.5147 113.51 17.0464 113.189 17.4756C112.868 17.9047 112.451 18.225 111.938 18.4364C111.426 18.6479 110.892 18.7536 110.336 18.7536Z" fill="black"/>
<path d="M53.4367 10.3946H53.8989V9.93234H53.4367V10.3946ZM51.8438 10.3946H51.3815V10.8569H51.8438V10.3946ZM51.8438 9.16319V8.70092H51.3815V9.16319H51.8438ZM53.4367 9.16319V9.62545H53.8989V9.16319H53.4367ZM57.3079 5.35699H57.7701V5.009L57.4357 4.91276L57.3079 5.35699ZM57.3079 6.55109L57.2166 7.00425L57.7701 7.11577V6.55109H57.3079ZM54.7703 9.16319H54.308V9.62545H54.7703V9.16319ZM57.3079 9.16319H57.7701V8.70092H57.3079V9.16319ZM57.3079 10.3946V10.8569H57.7701V10.3946H57.3079ZM54.7703 10.3946V9.93234H54.308V10.3946H54.7703ZM54.7703 18.4734V18.9357H55.2326V18.4734H54.7703ZM53.4367 18.4734H52.9744V18.9357H53.4367V18.4734ZM59.5307 9.9098L59.3502 9.48423L59.0685 9.60374V9.9098H59.5307ZM64.3836 9.10752H64.8459V8.75512L64.5061 8.66177L64.3836 9.10752ZM64.3836 10.3016L64.3259 10.7603L64.8459 10.8257V10.3016H64.3836ZM60.8644 10.5628L60.7864 10.1072L60.4021 10.1729V10.5628H60.8644ZM60.8644 18.4737V18.936H61.3266V18.4737H60.8644ZM59.5307 18.4737H59.0685V18.936H59.5307V18.4737ZM74.3848 9.1635L74.8158 9.3306L75.0598 8.70124H74.3848V9.1635ZM70.421 19.388L69.99 19.2209L69.9896 19.222L70.421 19.388ZM66.6424 21.9068H66.1801V22.2215L66.4729 22.3369L66.6424 21.9068ZM66.6424 20.6754L66.8333 20.2543L66.1801 19.9583V20.6754H66.6424ZM69.5134 18.5111L69.9523 18.6563L70.006 18.4939L69.9411 18.3356L69.5134 18.5111ZM65.6792 9.1635V8.70124H64.99L65.2516 9.33893L65.6792 9.1635ZM67.1981 9.1635L67.6294 8.99727L67.5153 8.70124H67.1981V9.1635ZM70.1246 16.7572L69.6933 16.9235L70.1246 18.0427L70.556 16.9235L70.1246 16.7572ZM73.0512 9.1635V8.70124H72.7339L72.6198 8.99727L73.0512 9.1635ZM84.1475 14.0518V14.5141H84.6023L84.6097 14.0593L84.1475 14.0518ZM77.4053 14.0518V13.5896H76.943V14.0518H77.4053ZM83.5733 16.7199H84.0355V15.8964L83.3325 16.3253L83.5733 16.7199ZM83.5733 18.1006L83.7743 18.5169L84.0355 18.3907V18.1006H83.5733ZM77.4616 12.8202L77.0024 12.7676L76.9434 13.2825H77.4616V12.8202ZM82.7405 12.8202V13.2825H83.2367L83.2016 12.7875L82.7405 12.8202ZM86.6492 9.9098L86.4395 9.49781L86.1869 9.62636V9.9098H86.6492ZM94.2249 18.4737V18.936H94.6871V18.4737H94.2249ZM92.8912 18.4737H92.429V18.936H92.8912V18.4737ZM87.9828 10.5815L87.8532 10.1377L87.5205 10.2349V10.5815H87.9828ZM87.9828 18.4737V18.936H88.4451V18.4737H87.9828ZM86.6492 18.4737H86.1869V18.936H86.6492V18.4737ZM104.762 5.22656H105.224V4.7643H104.762V5.22656ZM96.7233 13.6972H96.2611L96.2611 13.7002L96.7233 13.6972ZM103.428 9.55518L103.261 9.98586L103.891 10.2316V9.55518H103.428ZM103.428 5.22656V4.7643H102.966V5.22656H103.428ZM103.429 10.8984H103.891V10.63L103.658 10.4969L103.429 10.8984ZM107.262 17.97H106.799V18.2518L107.05 18.3809L107.262 17.97ZM107.262 16.552L107.491 16.1509L106.799 15.7545V16.552H107.262ZM110.873 14.5929L110.692 15.0183L110.704 15.0231L110.873 14.5929ZM110.392 14.3877L110.573 13.9624L110.546 13.9509L110.518 13.9429L110.392 14.3877ZM113.17 9.72323H113.633V9.42178L113.357 9.30022L113.17 9.72323ZM113.17 11.0666L112.962 11.4794L113.633 11.817V11.0666H113.17ZM110.818 13.1376L110.96 12.6976L110.951 12.6947L110.941 12.6921L110.818 13.1376ZM53.4367 9.93234H51.8438V10.8569H53.4367V9.93234ZM52.306 10.3946V9.16319H51.3815V10.3946H52.306ZM51.8438 9.62545H53.4367V8.70092H51.8438V9.62545ZM53.8989 9.16319V8.65942H52.9744V9.16319H53.8989ZM53.8989 8.65942C53.8989 7.66485 54.0743 7.0117 54.3506 6.62301L53.5971 6.08735C53.1572 6.7062 52.9744 7.58919 52.9744 8.65942H53.8989ZM54.3506 6.62301C54.6738 6.1684 54.9816 5.94588 55.2585 5.86678L55.0045 4.9778C54.4541 5.13504 53.9901 5.53444 53.5971 6.08735L54.3506 6.62301ZM55.2585 5.86678C55.6295 5.7608 56.0158 5.70731 56.4188 5.70731V4.78278C55.9327 4.78278 55.4608 4.84745 55.0045 4.9778L55.2585 5.86678ZM56.4188 5.70731C56.7187 5.70731 56.9707 5.74098 57.18 5.80122L57.4357 4.91276C57.1264 4.82374 56.7857 4.78278 56.4188 4.78278V5.70731ZM56.8456 5.35699V6.55109H57.7701V5.35699H56.8456ZM57.3992 6.09793C57.1299 6.04368 56.8763 6.01419 56.6411 6.01419V6.93873C56.801 6.93873 56.9919 6.95899 57.2166 7.00425L57.3992 6.09793ZM56.6411 6.01419C56.222 6.01419 55.8511 6.05316 55.5442 6.1459L55.8116 7.03091C55.9987 6.97439 56.2699 6.93873 56.6411 6.93873V6.01419ZM55.5442 6.1459C55.1468 6.26598 54.8529 6.56334 54.6383 6.93613L55.4395 7.39746C55.5829 7.14832 55.715 7.0601 55.8116 7.03091L55.5442 6.1459ZM54.6383 6.93613C54.397 7.35521 54.308 7.94755 54.308 8.64077H55.2326C55.2326 7.99061 55.3227 7.60032 55.4395 7.39746L54.6383 6.93613ZM54.308 8.64077V9.16319H55.2326V8.64077H54.308ZM54.7703 9.62545H57.3079V8.70092H54.7703V9.62545ZM56.8456 9.16319V10.3946H57.7701V9.16319H56.8456ZM57.3079 9.93234H54.7703V10.8569H57.3079V9.93234ZM54.308 10.3946V18.4734H55.2326V10.3946H54.308ZM54.7703 18.0112H53.4367V18.9357H54.7703V18.0112ZM53.8989 18.4734V10.3946H52.9744V18.4734H53.8989ZM59.7112 10.3354C60.1525 10.1482 60.75 9.95256 61.511 9.75017L61.2734 8.85669C60.491 9.06476 59.8474 9.27336 59.3502 9.48423L59.7112 10.3354ZM61.511 9.75017C62.2427 9.5556 63.0022 9.45784 63.7909 9.45784V8.5333C62.9249 8.5333 62.0854 8.64077 61.2734 8.85669L61.511 9.75017ZM63.7909 9.45784C63.8467 9.45784 63.9917 9.47924 64.2612 9.55327L64.5061 8.66177C64.2322 8.58653 63.9821 8.5333 63.7909 8.5333V9.45784ZM63.9214 9.10752V10.3016H64.8459V9.10752H63.9214ZM64.4414 9.84297C64.126 9.80327 63.8104 9.78338 63.4945 9.78338V10.7079C63.7714 10.7079 64.0485 10.7253 64.3259 10.7603L64.4414 9.84297ZM63.4945 9.78338C63.0686 9.78338 62.6696 9.80936 62.2988 9.86272L62.4305 10.7778C62.7512 10.7317 63.1056 10.7079 63.4945 10.7079V9.78338ZM62.2988 9.86272C61.9469 9.91336 61.442 9.99504 60.7864 10.1072L60.9423 11.0185C61.5956 10.9067 62.0909 10.8267 62.4305 10.7778L62.2988 9.86272ZM60.4021 10.5628V18.4737H61.3266V10.5628H60.4021ZM60.8644 18.0115H59.5307V18.936H60.8644V18.0115ZM59.993 18.4737V9.9098H59.0685V18.4737H59.993ZM73.9538 8.99641L69.99 19.2209L70.852 19.5551L74.8158 9.3306L73.9538 8.99641ZM69.9896 19.222C69.6196 20.1838 69.2105 20.7895 68.7946 21.1126L69.3617 21.8427C69.9707 21.3697 70.4568 20.5824 70.8524 19.554L69.9896 19.222ZM68.7946 21.1126C68.3447 21.462 67.9201 21.6125 67.513 21.6125V22.537C68.1678 22.537 68.7866 22.2894 69.3617 21.8427L68.7946 21.1126ZM67.513 21.6125C67.2764 21.6125 67.0436 21.5681 66.8119 21.4767L66.4729 22.3369C66.8092 22.4694 67.1568 22.537 67.513 22.537V21.6125ZM67.1047 21.9068V20.6754H66.1801V21.9068H67.1047ZM66.4516 21.0964C66.7613 21.2368 67.0922 21.3056 67.4389 21.3056V20.381C67.2175 20.381 67.0174 20.3378 66.8333 20.2543L66.4516 21.0964ZM67.4389 21.3056C68.0983 21.3056 68.6537 21.0576 69.0464 20.5466L68.3134 19.9832C68.1134 20.2434 67.8415 20.381 67.4389 20.381V21.3056ZM69.0464 20.5466C69.3889 20.101 69.6864 19.4598 69.9523 18.6563L69.0745 18.3658C68.8218 19.1296 68.5636 19.6576 68.3134 19.9832L69.0464 20.5466ZM69.9411 18.3356L66.1069 8.98808L65.2516 9.33893L69.0857 18.6865L69.9411 18.3356ZM65.6792 9.62577H67.1981V8.70124H65.6792V9.62577ZM66.7667 9.32974L69.6933 16.9235L70.556 16.591L67.6294 8.99727L66.7667 9.32974ZM70.556 16.9235L73.4825 9.32974L72.6198 8.99727L69.6933 16.591L70.556 16.9235ZM73.0512 9.62577H74.3848V8.70124H73.0512V9.62577ZM80.1096 9.45784C81.409 9.45784 82.2798 9.87581 82.8261 10.6441L83.5796 10.1084C82.8169 9.03577 81.6256 8.5333 80.1096 8.5333V9.45784ZM82.8261 10.6441C83.4063 11.4601 83.7089 12.5785 83.6853 14.0444L84.6097 14.0593C84.6354 12.4653 84.3083 11.1333 83.5796 10.1084L82.8261 10.6441ZM84.1475 13.5896H77.4053V14.5141H84.1475V13.5896ZM76.943 14.0518C76.943 15.2369 77.2173 16.2195 77.8343 16.9298L78.5322 16.3235C78.112 15.8396 77.8676 15.1058 77.8676 14.0518H76.943ZM77.8343 16.9298C78.4596 17.6497 79.3407 17.9845 80.4059 17.9845V17.0599C79.5448 17.0599 78.9442 16.7977 78.5322 16.3235L77.8343 16.9298ZM80.4059 17.9845C81.7084 17.9845 82.8513 17.7018 83.814 17.1145L83.3325 16.3253C82.5418 16.8077 81.5731 17.0599 80.4059 17.0599V17.9845ZM83.111 16.7199V18.1006H84.0355V16.7199H83.111ZM83.3722 17.6843C82.5475 18.0826 81.5392 18.2913 80.3318 18.2913V19.2159C81.6435 19.2159 82.7961 18.9893 83.7743 18.5169L83.3722 17.6843ZM80.3318 18.2913C79.0895 18.2913 78.1758 17.9085 77.5271 17.1855L76.8389 17.8029C77.6968 18.7591 78.8823 19.2159 80.3318 19.2159V18.2913ZM77.5271 17.1855C76.8773 16.4612 76.5154 15.3613 76.5154 13.8093H75.5909C75.5909 15.4914 75.9823 16.848 76.8389 17.8029L77.5271 17.1855ZM76.5154 13.8093C76.5154 12.2908 76.8575 11.2204 77.4667 10.5214L76.7697 9.91395C75.9588 10.8444 75.5909 12.1684 75.5909 13.8093H76.5154ZM77.4667 10.5214C78.0723 9.82649 78.9313 9.45784 80.1096 9.45784V8.5333C78.7194 8.5333 77.5842 8.97937 76.7697 9.91395L77.4667 10.5214ZM80.1103 9.76453C79.2307 9.76453 78.4839 9.96881 77.9482 10.4529L78.568 11.1388C78.872 10.8642 79.36 10.6891 80.1103 10.6891V9.76453ZM77.9482 10.4529C77.4025 10.946 77.1178 11.7598 77.0024 12.7676L77.9209 12.8728C78.0277 11.9402 78.274 11.4045 78.568 11.1388L77.9482 10.4529ZM77.4616 13.2825H82.7405V12.358H77.4616V13.2825ZM83.2016 12.7875C83.1355 11.8545 82.8693 11.081 82.3369 10.5448L81.6808 11.1962C82.0005 11.5182 82.2221 12.0446 82.2794 12.8529L83.2016 12.7875ZM82.3369 10.5448C81.7949 9.99884 81.0244 9.76453 80.1103 9.76453V10.6891C80.8756 10.6891 81.3708 10.8839 81.6808 11.1962L82.3369 10.5448ZM86.8588 10.3218C87.9886 9.74693 89.219 9.45784 90.5574 9.45784V8.5333C89.0804 8.5333 87.7054 8.85369 86.4395 9.49781L86.8588 10.3218ZM90.5574 9.45784C91.8022 9.45784 92.5894 9.73496 93.0373 10.1813L93.6899 9.52638C92.9894 8.82835 91.9058 8.5333 90.5574 8.5333V9.45784ZM93.0373 10.1813C93.4947 10.6371 93.7626 11.3514 93.7626 12.41H94.6871C94.6871 11.2047 94.3808 10.2149 93.6899 9.52638L93.0373 10.1813ZM93.7626 12.41V18.4737H94.6871V12.41H93.7626ZM94.2249 18.0115H92.8912V18.936H94.2249V18.0115ZM93.3535 18.4737V12.41H92.429V18.4737H93.3535ZM93.3535 12.41C93.3535 11.5895 93.1197 10.8939 92.5775 10.4129C92.0458 9.94131 91.2951 9.74606 90.4092 9.74606V10.6706C91.1781 10.6706 91.6683 10.8423 91.964 11.1046C92.2491 11.3574 92.429 11.7626 92.429 12.41H93.3535ZM90.4092 9.74606C89.5935 9.74606 88.7408 9.8786 87.8532 10.1377L88.1124 11.0252C88.9288 10.7868 89.6938 10.6706 90.4092 10.6706V9.74606ZM87.5205 10.5815V18.4737H88.4451V10.5815H87.5205ZM87.9828 18.0115H86.6492V18.936H87.9828V18.0115ZM87.1115 18.4737V9.9098H86.1869V18.4737H87.1115ZM104.3 5.22656V16.869H105.224V5.22656H104.3ZM104.3 16.869C104.3 17.0804 104.237 17.2509 104.11 17.4015C103.976 17.5605 103.752 17.7188 103.399 17.8564L103.736 18.7176C104.179 18.5443 104.553 18.3108 104.817 17.9972C105.088 17.6751 105.224 17.2921 105.224 16.869H104.3ZM103.399 17.8564C102.661 18.1445 101.852 18.2912 100.965 18.2912V19.2158C101.955 19.2158 102.88 19.0515 103.736 18.7176L103.399 17.8564ZM100.965 18.2912C99.9396 18.2912 99.0609 17.961 98.3071 17.2966L97.6957 17.9901C98.6212 18.8059 99.7182 19.2158 100.965 19.2158V18.2912ZM98.3071 17.2966C97.6165 16.6879 97.1977 15.54 97.1856 13.6942L96.2611 13.7002C96.2737 15.6358 96.7069 17.1186 97.6957 17.9901L98.3071 17.2966ZM97.1856 13.6972C97.1856 12.3014 97.5227 11.2741 98.1392 10.5559L97.4376 9.95376C96.634 10.89 96.2611 12.1575 96.2611 13.6972H97.1856ZM98.1392 10.5559C98.738 9.8583 99.6454 9.47637 100.946 9.47637V8.55183C99.4568 8.55183 98.2588 8.99706 97.4376 9.95376L98.1392 10.5559ZM100.946 9.47637C101.221 9.47637 101.583 9.52219 102.041 9.62393L102.242 8.72145C101.748 8.61174 101.314 8.55183 100.946 8.55183V9.47637ZM102.041 9.62393C102.497 9.72545 102.903 9.84656 103.261 9.98586L103.596 9.12449C103.188 8.96527 102.736 8.83139 102.242 8.72145L102.041 9.62393ZM103.891 9.55518V5.22656H102.966V9.55518H103.891ZM103.428 5.68883H104.762V4.7643H103.428V5.68883ZM103.658 10.4969C103.25 10.2637 102.806 10.087 102.33 9.96539L102.102 10.8612C102.502 10.9635 102.868 11.1102 103.2 11.2999L103.658 10.4969ZM102.33 9.96539C101.859 9.84493 101.397 9.78309 100.947 9.78309V10.7076C101.312 10.7076 101.697 10.7577 102.102 10.8612L102.33 9.96539ZM100.947 9.78309C99.8793 9.78309 99.0121 10.1304 98.4459 10.8935L99.1884 11.4444C99.5359 10.976 100.089 10.7076 100.947 10.7076V9.78309ZM98.4459 10.8935C97.9106 11.6149 97.6695 12.5664 97.6695 13.6971H98.5941C98.5941 12.6883 98.8099 11.9544 99.1884 11.4444L98.4459 10.8935ZM97.6695 13.6971C97.6695 14.9153 97.8873 15.9385 98.3666 16.7266L99.1565 16.2462C98.7962 15.6537 98.5941 14.8173 98.5941 13.6971H97.6695ZM98.3666 16.7266C98.8993 17.6026 99.8445 17.9842 101.04 17.9842V17.0596C100.037 17.0596 99.4635 16.7509 99.1565 16.2462L98.3666 16.7266ZM101.04 17.9842C101.727 17.9842 102.339 17.9061 102.865 17.7385L102.585 16.8575C102.173 16.9885 101.661 17.0596 101.04 17.0596V17.9842ZM102.865 17.7385C103.124 17.6564 103.36 17.5515 103.541 17.4079C103.729 17.2588 103.891 17.0354 103.891 16.7383H102.967C102.967 16.6651 103.013 16.6469 102.966 16.6843C102.911 16.7273 102.796 16.7904 102.585 16.8575L102.865 17.7385ZM103.891 16.7383V10.8984H102.967V16.7383H103.891ZM110.336 18.2913C109.734 18.2913 109.242 18.2316 108.849 18.1219L108.6 19.0122C109.097 19.1512 109.679 19.2159 110.336 19.2159V18.2913ZM108.849 18.1219C108.442 18.008 107.984 17.8223 107.473 17.5591L107.05 18.3809C107.601 18.6649 108.118 18.8773 108.6 19.0122L108.849 18.1219ZM107.724 17.97V16.552H106.799V17.97H107.724ZM107.032 16.9531C107.671 17.3194 108.214 17.5866 108.653 17.7431L108.963 16.8722C108.6 16.7425 108.111 16.506 107.491 16.1509L107.032 16.9531ZM108.653 17.7431C109.117 17.9083 109.65 17.9845 110.244 17.9845V17.0599C109.726 17.0599 109.302 16.993 108.963 16.8722L108.653 17.7431ZM110.244 17.9845C110.928 17.9845 111.532 17.8325 112.019 17.4898L111.487 16.7336C111.196 16.9382 110.794 17.0599 110.244 17.0599V17.9845ZM112.019 17.4898C112.518 17.1389 112.799 16.6496 112.799 16.0482H111.874C111.874 16.3176 111.767 16.5372 111.487 16.7336L112.019 17.4898ZM112.799 16.0482C112.799 15.5648 112.648 15.1269 112.278 14.8235L111.691 15.5378C111.791 15.6199 111.874 15.7604 111.874 16.0482H112.799ZM112.278 14.8235C111.988 14.5848 111.564 14.3678 111.043 14.1627L110.704 15.0231C111.195 15.2161 111.513 15.3909 111.691 15.5378L112.278 14.8235ZM111.055 14.1677L110.573 13.9624L110.211 14.8129L110.692 15.0182L111.055 14.1677ZM110.518 13.9429C109.821 13.7458 109.294 13.5712 108.93 13.4198L108.575 14.2735C108.989 14.4454 109.555 14.6316 110.266 14.8325L110.518 13.9429ZM108.93 13.4198C108.615 13.2889 108.335 13.0811 108.089 12.7857L107.379 13.3775C107.713 13.7787 108.112 14.0809 108.575 14.2735L108.93 13.4198ZM108.089 12.7857C107.887 12.5437 107.761 12.1872 107.761 11.6636H106.836C106.836 12.3342 107 12.923 107.379 13.3775L108.089 12.7857ZM107.761 11.6636C107.761 11.1495 107.892 10.757 108.127 10.4543L107.396 9.88771C107.014 10.3811 106.836 10.9837 106.836 11.6636H107.761ZM108.127 10.4543C108.382 10.1258 108.713 9.87948 109.134 9.71539L108.798 8.85414C108.23 9.07566 107.759 9.42012 107.396 9.88771L108.127 10.4543ZM109.134 9.71539C109.573 9.54402 110.034 9.45784 110.522 9.45784V8.5333C109.922 8.5333 109.346 8.63991 108.798 8.85414L109.134 9.71539ZM110.522 9.45784C110.984 9.45784 111.348 9.51059 111.627 9.60252L111.917 8.72447C111.516 8.5925 111.047 8.5333 110.522 8.5333V9.45784ZM111.627 9.60252C111.945 9.70749 112.396 9.88706 112.984 10.1462L113.357 9.30022C112.759 9.03697 112.277 8.84338 111.917 8.72447L111.627 9.60252ZM112.708 9.72323V11.0666H113.633V9.72323H112.708ZM113.378 10.6537C112.757 10.3411 112.268 10.1146 111.918 9.98146L111.589 10.8457C111.893 10.9613 112.348 11.1702 112.962 11.4794L113.378 10.6537ZM111.918 9.98146C111.526 9.83256 111.082 9.76472 110.596 9.76472V10.6893C110.999 10.6893 111.326 10.7458 111.589 10.8457L111.918 9.98146ZM110.596 9.76472C109.991 9.76472 109.445 9.88612 108.978 10.1517L109.435 10.9553C109.734 10.7855 110.114 10.6893 110.596 10.6893V9.76472ZM108.978 10.1517C108.469 10.4409 108.17 10.8924 108.17 11.4771H109.095C109.095 11.2657 109.178 11.1015 109.435 10.9553L108.978 10.1517ZM108.17 11.4771C108.17 11.8984 108.298 12.2814 108.581 12.5853L109.257 11.9547C109.158 11.8481 109.095 11.7026 109.095 11.4771H108.17ZM108.581 12.5853C108.823 12.845 109.122 13.0428 109.467 13.1833L109.816 12.327C109.581 12.2312 109.398 12.1055 109.257 11.9547L108.581 12.5853ZM109.467 13.1833C109.781 13.3111 110.193 13.4441 110.694 13.5831L110.941 12.6921C110.455 12.5575 110.083 12.4355 109.816 12.327L109.467 13.1833ZM110.676 13.5776C111.286 13.7743 111.76 13.9489 112.103 14.1012L112.478 13.2562C112.092 13.0851 111.584 12.899 110.96 12.6976L110.676 13.5776ZM112.103 14.1012C112.389 14.2284 112.652 14.4353 112.89 14.7381L113.617 14.1678C113.299 13.7617 112.92 13.4524 112.478 13.2562L112.103 14.1012ZM112.89 14.7381C113.086 14.9882 113.208 15.353 113.208 15.8803H114.133C114.133 15.2135 113.977 14.6267 113.617 14.1678L112.89 14.7381ZM113.208 15.8803C113.208 16.4338 113.069 16.8634 112.819 17.1986L113.559 17.7525C113.95 17.2295 114.133 16.5956 114.133 15.8803H113.208ZM112.819 17.1986C112.549 17.5587 112.2 17.8283 111.762 18.0091L112.115 18.8637C112.701 18.6217 113.186 18.2506 113.559 17.7525L112.819 17.1986ZM111.762 18.0091C111.306 18.1974 110.832 18.2913 110.336 18.2913V19.2159C110.952 19.2159 111.546 19.0983 112.115 18.8637L111.762 18.0091Z" fill="black"/>
</g>
</svg>
