<svg width="190" height="38" viewBox="0 0 190 38" fill="none" xmlns="http://www.w3.org/2000/svg">
<path opacity="0.5" fill-rule="evenodd" clip-rule="evenodd" d="M18.5609 0C22.1386 0 25.4799 1.01965 28.314 2.78621C28.4432 2.86674 28.5863 2.96088 28.7434 3.06864L28.9051 3.18094C29.7459 3.7715 29.9523 4.93689 29.3661 5.78391L29.3188 5.84918C28.8849 6.4216 28.5462 6.90347 28.3027 7.29479C26.246 10.5998 25.0572 14.5083 25.0572 18.6965C25.0572 22.8826 26.2447 26.7892 28.299 30.0932C28.5082 30.4297 28.7877 30.833 29.1373 31.3032L29.318 31.5438C29.9399 32.3647 29.7835 33.5379 28.9686 34.1643L28.9044 34.2115C28.67 34.3762 28.4624 34.5147 28.2816 34.6269C25.4548 36.3811 22.1252 37.3931 18.5609 37.3931C8.30999 37.3931 0 29.0224 0 18.6965C0 8.37073 8.30999 0 18.5609 0Z" fill="#DE5F28"/>
<path fill-rule="evenodd" clip-rule="evenodd" d="M46.4046 37.3931C56.6555 37.3931 64.9655 29.0224 64.9655 18.6965C64.9655 8.37073 56.6555 0 46.4046 0C36.1537 0 27.8438 8.37073 27.8438 18.6965C27.8438 29.0224 36.1537 37.3931 46.4046 37.3931Z" fill="#DE5F28"/>
<path fill-rule="evenodd" clip-rule="evenodd" d="M88.4009 17.2959H85.75V15.2466H88.4009V14.4083C88.4009 12.6902 88.6989 11.412 89.2948 10.5736C89.8908 9.73526 90.533 9.21776 91.2214 9.02111C91.9098 8.82446 92.6239 8.72614 93.3637 8.72614C93.9186 8.72614 94.4117 8.78823 94.8433 8.91244V10.8996C94.4323 10.8168 94.0624 10.7754 93.7336 10.7754C93.076 10.7754 92.5417 10.8375 92.1307 10.9617C91.7197 11.0859 91.3652 11.4068 91.0673 11.9243C90.7693 12.4418 90.6203 13.2594 90.6203 14.3772V15.2466H94.8433V17.2959H90.6203V30.7406H88.4009V17.2959ZM98.5428 16.4892C99.3237 16.158 100.356 15.8217 101.641 15.4801C102.925 15.1385 104.256 14.9678 105.633 14.9678C105.838 14.9678 106.167 15.0299 106.619 15.1541V17.1413C106.126 17.0792 105.633 17.0481 105.139 17.0481C104.461 17.0481 103.834 17.0895 103.259 17.1723C102.684 17.2551 101.851 17.3897 100.762 17.576V30.7412H98.5428V16.4892ZM123.261 15.2471L116.665 32.2625C116.028 33.9185 115.283 35.0777 114.43 35.7401C113.577 36.4025 112.709 36.7337 111.825 36.7337C111.332 36.7337 110.849 36.6405 110.376 36.4542V34.4049C110.787 34.5912 111.229 34.6844 111.702 34.6844C112.585 34.6844 113.274 34.3635 113.767 33.7218C114.26 33.0801 114.723 32.1072 115.154 30.8031L108.773 15.2471H111.301L116.171 27.8844L121.042 15.2471H123.261ZM132.79 14.9678C135.132 14.9678 136.848 15.7337 137.937 17.2655C139.027 18.7973 139.551 20.8362 139.509 23.3823H128.289C128.289 25.2453 128.721 26.6736 129.584 27.6672C130.447 28.6608 131.68 29.1576 133.283 29.1576C135.338 29.1576 137.095 28.7126 138.554 27.8225V30.1202C137.054 30.8447 135.256 31.2069 133.16 31.2069C130.92 31.2069 129.173 30.5083 127.919 29.111C126.666 27.7138 126.039 25.6697 126.039 22.9787C126.039 20.3498 126.63 18.3574 127.811 17.0015C128.993 15.6457 130.652 14.9678 132.79 14.9678ZM132.791 17.0166C131.434 17.0166 130.407 17.3323 129.708 17.9636C129.01 18.595 128.568 19.7179 128.383 21.3325H137.168C137.065 19.8835 136.659 18.802 135.95 18.0878C135.241 17.3737 134.188 17.0166 132.791 17.0166ZM143.672 16.4892C145.665 15.4749 147.833 14.9678 150.176 14.9678C152.334 14.9678 153.89 15.4439 154.846 16.3961C155.801 17.3483 156.279 18.7662 156.279 20.6499V30.7412H154.06V20.6499C154.06 18.2073 152.683 16.986 149.929 16.986C148.655 16.986 147.309 17.193 145.891 17.607V30.7412H143.672V16.4892ZM173.815 8.69531V28.0705C173.815 29.1262 173.153 29.9128 171.827 30.4303C170.502 30.9478 169.058 31.2066 167.496 31.2066C165.606 31.2066 163.962 30.5907 162.564 29.3591C161.167 28.1274 160.458 25.9384 160.438 22.792C160.438 20.3494 161.028 18.4398 162.21 17.0633C163.392 15.6867 165.143 14.9985 167.466 14.9985C168 14.9985 168.663 15.0864 169.454 15.2624C170.245 15.4383 170.959 15.6505 171.596 15.8989V8.69531H173.815ZM171.597 18.1342C170.98 17.7823 170.308 17.5132 169.578 17.3269C168.848 17.1406 168.145 17.0475 167.466 17.0475C165.864 17.0475 164.682 17.5598 163.922 18.5845C163.161 19.6091 162.781 21.0115 162.781 22.7917C162.781 24.7375 163.131 26.2849 163.829 27.4337C164.528 28.5826 165.792 29.157 167.621 29.157C168.71 29.157 169.645 29.0328 170.426 28.7844C171.207 28.536 171.597 28.2255 171.597 27.8529V18.1342ZM183.093 31.2069C182.045 31.2069 181.152 31.1034 180.412 30.8964C179.672 30.6894 178.86 30.3582 177.977 29.9028V27.543C179.025 28.1433 179.883 28.5625 180.55 28.8005C181.218 29.0386 182.015 29.1576 182.939 29.1576C183.967 29.1576 184.804 28.9299 185.452 28.4745C186.099 28.0191 186.423 27.4292 186.423 26.7047C186.423 26.063 186.227 25.5817 185.837 25.2608C185.446 24.94 184.83 24.614 183.987 24.2828L183.186 23.9412C182.015 23.61 181.105 23.3099 180.458 23.0408C179.811 22.7717 179.246 22.3473 178.763 21.7677C178.28 21.1881 178.038 20.4015 178.038 19.4079C178.038 18.4143 178.295 17.5863 178.809 16.9239C179.323 16.2615 179.99 15.7699 180.812 15.449C181.634 15.1282 182.498 14.9678 183.402 14.9678C184.224 14.9678 184.917 15.0609 185.482 15.2472C186.047 15.4335 186.823 15.744 187.81 16.1787V18.4143C186.782 17.8968 185.996 17.5346 185.452 17.3276C184.907 17.1206 184.265 17.0171 183.525 17.0171C182.621 17.0171 181.85 17.1982 181.213 17.5604C180.576 17.9227 180.258 18.435 180.258 19.0974C180.258 19.6356 180.417 20.0755 180.735 20.417C181.054 20.7586 181.455 21.0277 181.938 21.2243C182.42 21.421 183.073 21.6332 183.895 21.8609C184.922 22.1921 185.739 22.4922 186.345 22.7613C186.952 23.0304 187.486 23.4599 187.948 24.0499C188.411 24.6398 188.642 25.4316 188.642 26.4252C188.642 27.4809 188.375 28.3658 187.84 29.08C187.306 29.7941 186.613 30.3272 185.76 30.6791C184.907 31.031 184.018 31.2069 183.093 31.2069Z" fill="#DE5F28"/>
<path d="M88.4009 17.2959H89.1509V16.5459H88.4009V17.2959ZM85.75 17.2959H85V18.0459H85.75V17.2959ZM85.75 15.2466V14.4966H85V15.2466H85.75ZM88.4009 15.2466V15.9966H89.1509V15.2466H88.4009ZM94.8433 8.91244H95.5933V8.34784L95.0507 8.19169L94.8433 8.91244ZM94.8433 10.8996L94.6952 11.6349L95.5933 11.8158V10.8996H94.8433ZM90.6203 15.2466H89.8703V15.9966H90.6203V15.2466ZM94.8433 15.2466H95.5933V14.4966H94.8433V15.2466ZM94.8433 17.2959V18.0459H95.5933V17.2959H94.8433ZM90.6203 17.2959V16.5459H89.8703V17.2959H90.6203ZM90.6203 30.7406V31.4906H91.3703V30.7406H90.6203ZM88.4009 30.7406H87.6509V31.4906H88.4009V30.7406ZM98.5428 16.4892L98.25 15.7988L97.7928 15.9927V16.4892H98.5428ZM106.619 15.1541H107.369V14.5823L106.818 14.4309L106.619 15.1541ZM106.619 17.1413L106.525 17.8854L107.369 17.9916V17.1413H106.619ZM100.762 17.576L100.636 16.8367L100.012 16.9434V17.576H100.762ZM100.762 30.7412V31.4912H101.512V30.7412H100.762ZM98.5428 30.7412H97.7928V31.4912H98.5428V30.7412ZM123.261 15.2471L123.96 15.5182L124.356 14.4971H123.261V15.2471ZM116.665 32.2625L115.965 31.9914L115.965 31.9932L116.665 32.2625ZM110.376 36.4542H109.626V36.9648L110.101 37.152L110.376 36.4542ZM110.376 34.4049L110.686 33.7218L109.626 33.2415V34.4049H110.376ZM115.154 30.8031L115.866 31.0387L115.953 30.7753L115.848 30.5185L115.154 30.8031ZM108.773 15.2471V14.4971H107.655L108.08 15.5317L108.773 15.2471ZM111.301 15.2471L112.001 14.9774L111.816 14.4971H111.301V15.2471ZM116.171 27.8844L115.472 28.1541L116.171 29.97L116.871 28.1541L116.171 27.8844ZM121.042 15.2471V14.4971H120.527L120.342 14.9774L121.042 15.2471ZM139.509 23.3823V24.1323H140.247L140.259 23.3944L139.509 23.3823ZM128.289 23.3823V22.6323H127.539V23.3823H128.289ZM138.554 27.8225H139.304V26.4864L138.163 27.1822L138.554 27.8225ZM138.554 30.1202L138.88 30.7955L139.304 30.5908V30.1202H138.554ZM128.383 21.3325L127.638 21.2472L127.542 22.0825H128.383V21.3325ZM137.168 21.3325V22.0825H137.973L137.916 21.2795L137.168 21.3325ZM143.672 16.4892L143.332 15.8208L142.922 16.0293V16.4892H143.672ZM156.279 30.7412V31.4912H157.029V30.7412H156.279ZM154.06 30.7412H153.31V31.4912H154.06V30.7412ZM145.891 17.607L145.681 16.8871L145.141 17.0447V17.607H145.891ZM145.891 30.7412V31.4912H146.641V30.7412H145.891ZM143.672 30.7412H142.922V31.4912H143.672V30.7412ZM173.815 8.69531H174.565V7.94531H173.815V8.69531ZM160.438 22.792H159.688L159.688 22.7969L160.438 22.792ZM171.596 15.8989L171.324 16.5977L172.346 16.9964V15.8989H171.596ZM171.596 8.69531V7.94531H170.846V8.69531H171.596ZM171.597 18.1342H172.347V17.6988L171.969 17.4829L171.597 18.1342ZM177.977 29.9028H177.227V30.36L177.633 30.5695L177.977 29.9028ZM177.977 27.543L178.349 26.8922L177.227 26.2491V27.543H177.977ZM183.987 24.2828L183.693 24.9727L183.703 24.9769L183.713 24.9808L183.987 24.2828ZM183.186 23.9412L183.48 23.2513L183.436 23.2325L183.39 23.2195L183.186 23.9412ZM187.81 16.1787H188.56V15.6896L188.112 15.4924L187.81 16.1787ZM187.81 18.4143L187.472 19.0842L188.56 19.6318V18.4143H187.81ZM183.895 21.8609L184.125 21.147L184.11 21.1423L184.095 21.1381L183.895 21.8609ZM88.4009 16.5459H85.75V18.0459H88.4009V16.5459ZM86.5 17.2959V15.2466H85V17.2959H86.5ZM85.75 15.9966H88.4009V14.4966H85.75V15.9966ZM89.1509 15.2466V14.4083H87.6509V15.2466H89.1509ZM89.1509 14.4083C89.1509 12.7516 89.4429 11.6598 89.9061 11.0081L88.6836 10.1391C87.9549 11.1641 87.6509 12.6288 87.6509 14.4083H89.1509ZM89.9061 11.0081C90.4454 10.2495 90.9609 9.87553 91.4274 9.74226L91.0154 8.29996C90.1051 8.55999 89.3362 9.22097 88.6836 10.1391L89.9061 11.0081ZM91.4274 9.74226C92.0466 9.56538 92.6912 9.47614 93.3637 9.47614V7.97614C92.5566 7.97614 91.773 8.08354 91.0154 8.29996L91.4274 9.74226ZM93.3637 9.47614C93.8642 9.47614 94.2854 9.53232 94.6359 9.63318L95.0507 8.19169C94.5381 8.04415 93.9729 7.97614 93.3637 7.97614V9.47614ZM94.0933 8.91244V10.8996H95.5933V8.91244H94.0933ZM94.9914 10.1644C94.5442 10.0743 94.1235 10.0254 93.7336 10.0254V11.5254C94.0013 11.5254 94.3203 11.5593 94.6952 11.6349L94.9914 10.1644ZM93.7336 10.0254C93.0372 10.0254 92.422 10.0902 91.9138 10.2438L92.3477 11.6797C92.6614 11.5848 93.1149 11.5254 93.7336 11.5254V10.0254ZM91.9138 10.2438C91.2588 10.4417 90.773 10.9322 90.4173 11.55L91.7172 12.2985C91.9574 11.8813 92.1807 11.7301 92.3477 11.6797L91.9138 10.2438ZM90.4173 11.55C90.0183 12.2429 89.8703 13.2245 89.8703 14.3772H91.3703C91.3703 13.2944 91.5202 12.6406 91.7172 12.2985L90.4173 11.55ZM89.8703 14.3772V15.2466H91.3703V14.3772H89.8703ZM90.6203 15.9966H94.8433V14.4966H90.6203V15.9966ZM94.0933 15.2466V17.2959H95.5933V15.2466H94.0933ZM94.8433 16.5459H90.6203V18.0459H94.8433V16.5459ZM89.8703 17.2959V30.7406H91.3703V17.2959H89.8703ZM90.6203 29.9906H88.4009V31.4906H90.6203V29.9906ZM89.1509 30.7406V17.2959H87.6509V30.7406H89.1509ZM98.8357 17.1797C99.5713 16.8677 100.566 16.5418 101.833 16.2049L101.448 14.7553C100.146 15.1015 99.0762 15.4483 98.25 15.7988L98.8357 17.1797ZM101.833 16.2049C103.053 15.8807 104.318 15.7178 105.633 15.7178V14.2178C104.193 14.2178 102.797 14.3964 101.448 14.7553L101.833 16.2049ZM105.633 15.7178C105.728 15.7178 105.972 15.7541 106.42 15.8773L106.818 14.4309C106.362 14.3057 105.948 14.2178 105.633 14.2178V15.7178ZM105.869 15.1541V17.1413H107.369V15.1541H105.869ZM106.713 16.3971C106.189 16.3312 105.664 16.2981 105.139 16.2981V17.7981C105.601 17.7981 106.063 17.8272 106.525 17.8854L106.713 16.3971ZM105.139 16.2981C104.431 16.2981 103.768 16.3413 103.152 16.43L103.366 17.9147C103.901 17.8377 104.491 17.7981 105.139 17.7981V16.2981ZM103.152 16.43C102.567 16.5142 101.727 16.6501 100.636 16.8367L100.889 18.3152C101.976 18.1293 102.8 17.996 103.366 17.9147L103.152 16.43ZM100.012 17.576V30.7412H101.512V17.576H100.012ZM100.762 29.9912H98.5428V31.4912H100.762V29.9912ZM99.2928 30.7412V16.4892H97.7928V30.7412H99.2928ZM122.562 14.976L115.965 31.9914L117.364 32.5336L123.96 15.5182L122.562 14.976ZM115.965 31.9932C115.348 33.5951 114.666 34.607 113.97 35.1477L114.89 36.3324C115.899 35.5484 116.707 34.2418 117.365 32.5317L115.965 31.9932ZM113.97 35.1477C113.218 35.7313 112.508 35.9837 111.825 35.9837V37.4837C112.91 37.4837 113.935 37.0737 114.89 36.3324L113.97 35.1477ZM111.825 35.9837C111.429 35.9837 111.039 35.9093 110.651 35.7565L110.101 37.152C110.659 37.3717 111.235 37.4837 111.825 37.4837V35.9837ZM111.126 36.4542V34.4049H109.626V36.4542H111.126ZM110.067 35.088C110.58 35.3205 111.128 35.4344 111.702 35.4344V33.9344C111.331 33.9344 110.995 33.8619 110.686 33.7218L110.067 35.088ZM111.702 35.4344C112.794 35.4344 113.712 35.024 114.362 34.1789L113.172 33.2648C112.836 33.7031 112.377 33.9344 111.702 33.9344V35.4344ZM114.362 34.1789C114.93 33.4398 115.424 32.3751 115.866 31.0387L114.442 30.5675C114.021 31.8393 113.591 32.7204 113.172 33.2648L114.362 34.1789ZM115.848 30.5185L109.467 14.9625L108.08 15.5317L114.46 31.0877L115.848 30.5185ZM108.773 15.9971H111.301V14.4971H108.773V15.9971ZM110.601 15.5168L115.472 28.1541L116.871 27.6147L112.001 14.9774L110.601 15.5168ZM116.871 28.1541L121.742 15.5168L120.342 14.9774L115.472 27.6147L116.871 28.1541ZM121.042 15.9971H123.261V14.4971H121.042V15.9971ZM132.79 15.7178C134.957 15.7178 136.413 16.4151 137.326 17.7001L138.549 16.8309C137.284 15.0522 135.308 14.2178 132.79 14.2178V15.7178ZM137.326 17.7001C138.295 19.0624 138.799 20.9281 138.76 23.3702L140.259 23.3944C140.302 20.7443 139.758 18.5322 138.549 16.8309L137.326 17.7001ZM139.509 22.6323H128.289V24.1323H139.509V22.6323ZM127.539 23.3823C127.539 25.3517 127.995 26.9818 129.018 28.1591L130.15 27.1754C129.447 26.3655 129.039 25.139 129.039 23.3823H127.539ZM129.018 28.1591C130.054 29.352 131.514 29.9076 133.283 29.9076V28.4076C131.846 28.4076 130.84 27.9697 130.15 27.1754L129.018 28.1591ZM133.283 29.9076C135.448 29.9076 137.346 29.4379 138.944 28.4627L138.163 27.1822C136.844 27.9872 135.228 28.4076 133.283 28.4076V29.9076ZM137.804 27.8225V30.1202H139.304V27.8225H137.804ZM138.228 29.4448C136.852 30.1092 135.171 30.4569 133.16 30.4569V31.9569C135.34 31.9569 137.255 31.5802 138.88 30.7955L138.228 29.4448ZM133.16 30.4569C131.088 30.4569 129.561 29.8183 128.478 28.6102L127.361 29.6119C128.784 31.1983 130.752 31.9569 133.16 31.9569V30.4569ZM128.478 28.6102C127.392 27.4 126.789 25.5642 126.789 22.9787H125.289C125.289 25.7752 125.94 28.0276 127.361 29.6119L128.478 28.6102ZM126.789 22.9787C126.789 20.4491 127.359 18.6624 128.377 17.4943L127.246 16.5088C125.901 18.0524 125.289 20.2505 125.289 22.9787H126.789ZM128.377 17.4943C129.389 16.3329 130.824 15.7178 132.79 15.7178V14.2178C130.481 14.2178 128.597 14.9585 127.246 16.5088L128.377 17.4943ZM132.791 16.2666C131.33 16.2666 130.092 16.606 129.205 17.4072L130.211 18.5201C130.722 18.0586 131.539 17.7666 132.791 17.7666V16.2666ZM129.205 17.4072C128.303 18.223 127.83 19.5716 127.638 21.2472L129.128 21.4179C129.306 19.8643 129.717 18.967 130.211 18.5201L129.205 17.4072ZM128.383 22.0825H137.168V20.5825H128.383V22.0825ZM137.916 21.2795C137.806 19.7293 137.364 18.4474 136.483 17.5594L135.418 18.6162C135.954 19.1566 136.324 20.0378 136.42 21.3856L137.916 21.2795ZM136.483 17.5594C135.585 16.6557 134.309 16.2666 132.791 16.2666V17.7666C134.067 17.7666 134.897 18.0916 135.418 18.6162L136.483 17.5594ZM144.012 17.1577C145.895 16.1995 147.946 15.7178 150.176 15.7178V14.2178C147.721 14.2178 145.435 14.7503 143.332 15.8208L144.012 17.1577ZM150.176 15.7178C152.25 15.7178 153.566 16.1793 154.316 16.9273L155.375 15.8648C154.215 14.7084 152.418 14.2178 150.176 14.2178V15.7178ZM154.316 16.9273C155.083 17.6908 155.529 18.8853 155.529 20.6499H157.029C157.029 18.6472 156.52 17.0058 155.375 15.8648L154.316 16.9273ZM155.529 20.6499V30.7412H157.029V20.6499H155.529ZM156.279 29.9912H154.06V31.4912H156.279V29.9912ZM154.81 30.7412V20.6499H153.31V30.7412H154.81ZM154.81 20.6499C154.81 19.2882 154.422 18.1366 153.525 17.3409C152.645 16.5605 151.401 16.236 149.929 16.236V17.736C151.211 17.736 152.033 18.0222 152.529 18.4631C153.009 18.8887 153.31 19.5691 153.31 20.6499H154.81ZM149.929 16.236C148.574 16.236 147.157 16.4562 145.681 16.8871L146.101 18.327C147.462 17.9298 148.737 17.736 149.929 17.736V16.236ZM145.141 17.607V30.7412H146.641V17.607H145.141ZM145.891 29.9912H143.672V31.4912H145.891V29.9912ZM144.422 30.7412V16.4892H142.922V30.7412H144.422ZM173.065 8.69531V28.0705H174.565V8.69531H173.065ZM173.065 28.0705C173.065 28.4266 172.959 28.7148 172.745 28.969C172.519 29.2368 172.143 29.5019 171.555 29.7317L172.1 31.1289C172.837 30.8412 173.455 30.4543 173.892 29.9355C174.341 29.4031 174.565 28.7701 174.565 28.0705H173.065ZM171.555 29.7317C170.324 30.2121 168.974 30.4566 167.496 30.4566V31.9566C169.142 31.9566 170.68 31.6836 172.1 31.1289L171.555 29.7317ZM167.496 30.4566C165.785 30.4566 164.319 29.9054 163.06 28.7964L162.069 29.9217C163.605 31.2761 165.426 31.9566 167.496 31.9566V30.4566ZM163.06 28.7964C161.905 27.7781 161.208 25.8607 161.188 22.7871L159.688 22.7969C159.709 26.0161 160.429 28.4768 162.069 29.9217L163.06 28.7964ZM161.188 22.792C161.188 20.4661 161.749 18.7514 162.779 17.5518L161.641 16.5748C160.307 18.1282 159.688 20.2327 159.688 22.792H161.188ZM162.779 17.5518C163.78 16.3854 165.296 15.7485 167.466 15.7485V14.2485C164.991 14.2485 163.003 14.9881 161.641 16.5748L162.779 17.5518ZM167.466 15.7485C167.925 15.7485 168.529 15.825 169.291 15.9945L169.617 14.5303C168.796 14.3479 168.075 14.2485 167.466 14.2485V15.7485ZM169.291 15.9945C170.051 16.1636 170.728 16.3654 171.324 16.5977L171.869 15.2002C171.19 14.9356 170.438 14.7131 169.617 14.5303L169.291 15.9945ZM172.346 15.8989V8.69531H170.846V15.8989H172.346ZM171.596 9.44531H173.815V7.94531H171.596V9.44531ZM171.969 17.4829C171.29 17.0957 170.554 16.8022 169.764 16.6003L169.392 18.0536C170.061 18.2243 170.671 18.469 171.225 18.7856L171.969 17.4829ZM169.764 16.6003C168.98 16.4001 168.214 16.2975 167.466 16.2975V17.7975C168.076 17.7975 168.717 17.8811 169.392 18.0536L169.764 16.6003ZM167.466 16.2975C165.694 16.2975 164.257 16.8738 163.319 18.1375L164.524 19.0314C165.107 18.2458 166.034 17.7975 167.466 17.7975V16.2975ZM163.319 18.1375C162.432 19.3337 162.031 20.9126 162.031 22.7917H163.531C163.531 21.1104 163.891 19.8845 164.524 19.0314L163.319 18.1375ZM162.031 22.7917C162.031 24.8171 162.393 26.5159 163.188 27.8234L164.47 27.044C163.868 26.0538 163.531 24.658 163.531 22.7917H162.031ZM163.188 27.8234C164.07 29.2734 165.635 29.907 167.621 29.907V28.407C165.948 28.407 164.986 27.8917 164.47 27.044L163.188 27.8234ZM167.621 29.907C168.763 29.907 169.779 29.7771 170.653 29.4991L170.198 28.0697C169.511 28.2884 168.656 28.407 167.621 28.407V29.907ZM170.653 29.4991C171.082 29.3627 171.473 29.1891 171.771 28.9522C172.08 28.7063 172.347 28.3396 172.347 27.8529H170.847C170.847 27.7388 170.919 27.7136 170.837 27.7782C170.745 27.8518 170.55 27.9577 170.198 28.0697L170.653 29.4991ZM172.347 27.8529V18.1342H170.847V27.8529H172.347ZM183.093 30.4569C182.091 30.4569 181.269 30.3574 180.614 30.1742L180.21 31.6187C181.034 31.8494 182 31.9569 183.093 31.9569V30.4569ZM180.614 30.1742C179.935 29.9842 179.171 29.6747 178.32 29.2361L177.633 30.5695C178.549 31.0418 179.409 31.3947 180.21 31.6187L180.614 30.1742ZM178.727 29.9028V27.543H177.227V29.9028H178.727ZM177.604 28.1938C178.668 28.8032 179.57 29.2472 180.299 29.507L180.802 28.0941C180.195 27.8778 179.382 27.4835 178.349 26.8922L177.604 28.1938ZM180.299 29.507C181.068 29.7811 181.953 29.9076 182.939 29.9076V28.4076C182.076 28.4076 181.369 28.2961 180.802 28.0941L180.299 29.507ZM182.939 29.9076C184.075 29.9076 185.076 29.6554 185.883 29.0879L185.02 27.8611C184.532 28.2045 183.858 28.4076 182.939 28.4076V29.9076ZM185.883 29.0879C186.708 28.5073 187.173 27.6985 187.173 26.7047H185.673C185.673 27.1598 185.489 27.531 185.02 27.8611L185.883 29.0879ZM187.173 26.7047C187.173 25.9043 186.922 25.1817 186.313 24.6814L185.361 25.8403C185.533 25.9816 185.673 26.2216 185.673 26.7047H187.173ZM186.313 24.6814C185.832 24.286 185.129 23.9258 184.262 23.5848L183.713 24.9808C184.531 25.3022 185.061 25.594 185.361 25.8403L186.313 24.6814ZM184.281 23.5928L183.48 23.2513L182.892 24.6312L183.693 24.9727L184.281 23.5928ZM183.39 23.2195C182.23 22.8914 181.353 22.6007 180.746 22.3482L180.17 23.7333C180.857 24.0191 181.799 24.3286 182.982 24.6629L183.39 23.2195ZM180.746 22.3482C180.219 22.1291 179.75 21.7814 179.339 21.2876L178.186 22.2478C178.741 22.9132 179.402 23.4142 180.17 23.7333L180.746 22.3482ZM179.339 21.2876C179 20.8805 178.788 20.2823 178.788 19.4079H177.288C177.288 20.5207 177.56 21.4958 178.186 22.2478L179.339 21.2876ZM178.788 19.4079C178.788 18.5488 179.008 17.8913 179.401 17.3836L178.216 16.4643C177.582 17.2814 177.288 18.2799 177.288 19.4079H178.788ZM179.401 17.3836C179.828 16.834 180.383 16.422 181.085 16.1477L180.54 14.7504C179.598 15.1178 178.817 15.689 178.216 16.4643L179.401 17.3836ZM181.085 16.1477C181.818 15.8616 182.588 15.7178 183.402 15.7178V14.2178C182.407 14.2178 181.451 14.3948 180.54 14.7504L181.085 16.1477ZM183.402 15.7178C184.172 15.7178 184.781 15.8057 185.248 15.9595L185.717 14.5349C185.054 14.3162 184.275 14.2178 183.402 14.2178V15.7178ZM185.248 15.9595C185.778 16.1345 186.528 16.4336 187.507 16.865L188.112 15.4924C187.118 15.0544 186.317 14.7325 185.717 14.5349L185.248 15.9595ZM187.06 16.1787V18.4143H188.56V16.1787H187.06ZM188.147 17.7445C187.114 17.2242 186.3 16.8477 185.718 16.6265L185.185 18.0286C185.692 18.2214 186.45 18.5694 187.472 19.0842L188.147 17.7445ZM185.718 16.6265C185.069 16.3797 184.332 16.2671 183.525 16.2671V17.7671C184.197 17.7671 184.745 17.8614 185.185 18.0286L185.718 16.6265ZM183.525 16.2671C182.521 16.2671 181.616 16.4686 180.842 16.9085L181.584 18.2124C182.084 17.9278 182.721 17.7671 183.525 17.7671V16.2671ZM180.842 16.9085C180.001 17.3868 179.508 18.1322 179.508 19.0974H181.008C181.008 18.7378 181.151 18.4586 181.584 18.2124L180.842 16.9085ZM179.508 19.0974C179.508 19.7945 179.719 20.427 180.187 20.9286L181.284 19.9055C181.115 19.724 181.008 19.4768 181.008 19.0974H179.508ZM180.187 20.9286C180.588 21.3585 181.083 21.6861 181.655 21.919L182.22 20.5297C181.826 20.3693 181.52 20.1587 181.284 19.9055L180.187 20.9286ZM181.655 21.919C182.176 22.1313 182.86 22.3524 183.695 22.5837L184.095 21.1381C183.286 20.914 182.665 20.7107 182.22 20.5297L181.655 21.919ZM183.665 22.5747C184.681 22.9021 185.469 23.193 186.041 23.4468L186.65 22.0758C186.009 21.7914 185.164 21.482 184.125 21.147L183.665 22.5747ZM186.041 23.4468C186.521 23.66 186.961 24.0064 187.358 24.5125L188.539 23.5872C188.011 22.9135 187.382 22.4009 186.65 22.0758L186.041 23.4468ZM187.358 24.5125C187.688 24.9331 187.892 25.5447 187.892 26.4252H189.392C189.392 25.3185 189.134 24.3466 188.539 23.5872L187.358 24.5125ZM187.892 26.4252C187.892 27.3497 187.66 28.0689 187.24 28.6307L188.441 29.5293C189.089 28.6628 189.392 27.6122 189.392 26.4252H187.892ZM187.24 28.6307C186.789 29.2329 186.206 29.6835 185.474 29.9858L186.046 31.3724C187.019 30.9708 187.823 30.3554 188.441 29.5293L187.24 28.6307ZM185.474 29.9858C184.712 30.3001 183.92 30.4569 183.093 30.4569V31.9569C184.116 31.9569 185.102 31.7618 186.046 31.3724L185.474 29.9858Z" fill="#DE5F28"/>
</svg>
