<svg width="37" height="43" viewBox="0 0 37 43" fill="none" xmlns="http://www.w3.org/2000/svg">
<path d="M35.1433 25.2919C34.991 25.4948 34.2807 26.3569 33.7226 26.9148L33.4181 27.2191C29.156 31.8341 18.5515 38.782 13.1732 41.0135C13.1732 41.0642 9.97663 42.3828 8.45446 42.4335H8.2515C5.9175 42.4335 3.73571 41.1149 2.61945 38.9849C2.01058 37.8185 1.45245 34.4206 1.40171 34.3699C0.94506 31.327 0.640625 26.6663 0.640625 21.539C0.640625 16.1633 0.94506 11.2947 1.50319 8.30251C1.50319 8.2518 2.06132 5.51321 2.4165 4.60034C2.97463 3.28176 3.98941 2.16604 5.25789 1.45603C6.27267 0.948886 7.33819 0.695312 8.45446 0.695312C9.62146 0.746027 11.8032 1.51182 12.6658 1.86175C18.3486 4.0932 29.2068 11.3961 33.3674 15.859C34.0777 16.569 34.8388 17.4312 35.0418 17.634C35.9043 18.7497 36.361 20.119 36.361 21.5948C36.361 22.9083 35.9551 24.2269 35.1433 25.2919Z" fill="white"/>
</svg>
