<svg width="256" height="256" viewBox="0 0 256 256" fill="none" xmlns="http://www.w3.org/2000/svg">
<g clip-path="url(#clip0_1059_6984)">
<path opacity="0.5" fill-rule="evenodd" clip-rule="evenodd" d="M73.1493 54.3086C87.2508 54.3086 100.42 58.3275 111.591 65.2903C112.1 65.6078 112.664 65.9788 113.283 66.4035L113.921 66.8462C117.235 69.1738 118.048 73.7672 115.738 77.1057L115.551 77.363C113.841 79.6191 112.506 81.5184 111.546 83.0608C103.44 96.0873 98.7543 111.493 98.7543 128C98.7543 144.499 103.435 159.897 111.532 172.92C112.356 174.246 113.458 175.836 114.836 177.689L115.548 178.638C117.999 181.873 117.383 186.497 114.171 188.966L113.918 189.152C112.994 189.801 112.176 190.347 111.463 190.789C100.322 197.703 87.1979 201.692 73.1493 201.692C32.7458 201.692 -0.0078125 168.699 -0.0078125 128C-0.0078125 87.3016 32.7458 54.3086 73.1493 54.3086Z" fill="#DE5F28"/>
<path fill-rule="evenodd" clip-rule="evenodd" d="M182.852 201.692C223.256 201.692 256.01 168.699 256.01 128C256.01 87.3016 223.256 54.3086 182.852 54.3086C142.449 54.3086 109.695 87.3016 109.695 128C109.695 168.699 142.449 201.692 182.852 201.692Z" fill="#DE5F28"/>
</g>
<defs>
<clipPath id="clip0_1059_6984">
<rect width="256" height="256" fill="white"/>
</clipPath>
</defs>
</svg>
